<?xml version="1.0" encoding="UTF-8" standalone="no"?>
<!-- Created with Inkscape (http://www.inkscape.org/) -->

<svg
   xmlns:dc="http://purl.org/dc/elements/1.1/"
   xmlns:cc="http://creativecommons.org/ns#"
   xmlns:rdf="http://www.w3.org/1999/02/22-rdf-syntax-ns#"
   xmlns:svg="http://www.w3.org/2000/svg"
   xmlns="http://www.w3.org/2000/svg"
   xmlns:sodipodi="http://sodipodi.sourceforge.net/DTD/sodipodi-0.dtd"
   xmlns:inkscape="http://www.inkscape.org/namespaces/inkscape"
   width="300"
   height="300"
   id="svg2"
   version="1.1"
   inkscape:version="0.91 r13725"
   sodipodi:docname="29.svg">
  <defs
     id="defs4" />
  <sodipodi:namedview
     id="base"
     pagecolor="#ffffff"
     bordercolor="#666666"
     borderopacity="1.0"
     inkscape:pageopacity="0.0"
     inkscape:pageshadow="2"
     inkscape:zoom="1"
     inkscape:cx="363.5"
     inkscape:cy="141.50493"
     inkscape:document-units="px"
     inkscape:current-layer="g3372"
     showgrid="false"
     inkscape:window-width="1313"
     inkscape:window-height="664"
     inkscape:window-x="15"
     inkscape:window-y="24"
     inkscape:window-maximized="0"
     units="px"
     showguides="true"
     inkscape:guide-bbox="true"
     gridtolerance="10"
     guidetolerance="9">
    <sodipodi:guide
       orientation="1,0"
       position="10,143"
       id="guide3608" />
    <sodipodi:guide
       orientation="0,1"
       position="55,291"
       id="guide3610" />
    <sodipodi:guide
       orientation="0,1"
       position="183,20"
       id="guide3612" />
    <sodipodi:guide
       orientation="1,0"
       position="280,36"
       id="guide3614" />
  </sodipodi:namedview>
  <metadata
     id="metadata7">
    <rdf:RDF>
      <cc:Work
         rdf:about="">
        <dc:format>image/svg+xml</dc:format>
        <dc:type
           rdf:resource="http://purl.org/dc/dcmitype/StillImage" />
        <dc:title />
      </cc:Work>
    </rdf:RDF>
  </metadata>
  <g
     inkscape:label="Ebene 1"
     inkscape:groupmode="layer"
     id="layer1"
     transform="translate(0,-752.3608)">
    <path
       style="fill:#ffffff;stroke:#000000;stroke-width:1px;stroke-linecap:butt;stroke-linejoin:miter;stroke-opacity:1"
       d="m 27,26 61,-9 111,1 76,6 7,14 2,133 -10,43 -131,12 -75,3 5,39 -15,-15 -7,-24 -29,-6 -8,-43 1,-111 2,-31 z"
       id="path3303"
       inkscape:connector-curvature="0"
       transform="translate(0,752.3608)" />
    <path
       style="fill:#000000"
       d="m 81.224616,1038.4458 c -21.46615,-22.3999 -25.667387,-18.2632 -30.80341,-47.54166 -0.502294,-2.8634 -1.241298,-5.20612 -1.64223,-5.20612 -33.427039,0 -32.902784,0.64167 -36.232878,-44.34854 C 6.6856696,862.174 10.731255,779.76998 22.512429,773.4707 51.995645,757.70633 245.58862,757.38735 278.22964,773.04937 c 17.9814,8.62794 14.62417,196.46836 -3.65898,202.56626 -5.71139,1.90491 -56.77084,4.97261 -142.10756,8.53782 -63.320087,2.64549 -57.362293,1.80806 -57.628057,8.10045 -0.642008,15.2006 -1.101211,14.4712 11.878213,42.836 7.707691,16.8441 7.53712,16.9484 -5.48864,3.3559 z m -14.010101,-33.5553 c -6.574962,-21.1814 -2.491717,-26.75707 1.069925,-29.8551 0.592688,-0.51552 10.872213,-1.13539 27.412191,-1.65289 116.076719,-3.63188 172.333459,-6.72249 176.734519,-9.70935 9.33589,-6.33597 13.18934,-160.93179 4.56555,-178.72954 -3.97136,-8.19609 -35.67829,-11.65949 -106.63486,-11.64788 -91.906666,0.0151 -140.623795,5.31026 -145.600572,15.82585 -8.336406,17.61425 -8.135072,174.34966 0.241367,183.12881 3.066362,3.21384 16.434382,4.55955 27.069602,2.72503 4.355176,-0.75118 4.64015,-0.40282 5.300631,6.48057 2.061414,21.4836 2.086781,19.7858 10.276448,31.2027 2.852055,3.9759 2.773163,2.5664 -0.434801,-7.7682 z"
       id="path3004"
       inkscape:connector-curvature="0"
       sodipodi:nodetypes="sssssssssssssssssssssss" />
    <g
       id="g3370"
       transform="translate(430.45936,763.30173)">
      <g
         id="g3372">
        <path
           id="path3374"
           d="m -322.27094,253.26149 c 0,-4.25677 3.10367,-7.22916 8.74393,-7.22916 3.4415,0 6.25761,1.09881 7.7833,2.17521 0.21833,0.15369 0.60787,0.52657 0.37432,1.22004 -0.29934,0.7469 -0.84831,1.87013 -1.24216,2.5998 -0.22924,0.42516 -0.8147,0.36914 -1.11461,0.21717 -1.08674,-0.55069 -2.86925,-1.48231 -4.5067,-1.6541 -0.40189,-0.0422 -0.82417,-0.0652 -1.24876,-0.054 -1.4421,0.0322 -2.64691,0.53289 -3.07121,1.63314 -0.0853,0.2189 -0.13128,0.43751 -0.13702,0.65325 -0.0396,1.44985 1.97814,1.97412 4.42252,2.39411 4.54433,0.7785 7.98238,2.11086 7.98238,6.7882 0,3.97208 -3.15681,7.56181 -9.34203,7.45179 -4.07751,-0.0824 -6.97033,-1.46019 -8.52044,-2.79715 -0.0528,-0.0454 -0.64291,-0.64636 -0.32662,-1.36913 0.36196,-0.93047 0.97298,-1.99682 1.45244,-2.56303 0.26658,-0.36368 0.97011,-0.42142 1.3358,-0.19477 1.27778,0.79402 3.3806,2.0672 5.80459,2.15166 0.19132,0.007 0.38092,0.008 0.56707,0.003 2.18038,-0.0529 3.49953,-0.87962 3.47195,-2.27231 -0.0236,-1.22693 -1.75235,-1.94367 -4.50526,-2.46248 -4.39064,-0.82705 -7.92292,-2.27432 -7.92292,-6.6911"
           inkscape:connector-curvature="0"
           style="fill:#000000" />
        <path
           id="path3376"
           d="m -278.3826,259.32261 c -3.0962,0.0405 -5.935,0.8868 -6.01687,3.30648 -8.6e-4,1.92011 1.55672,2.86322 3.74284,2.7397 2.09708,-0.20195 3.69631,-1.11145 4.40098,-2.31828 0.26056,-0.44728 0.3002,-2.12091 0.2844,-2.83622 -0.004,-0.15225 -0.30508,-0.44038 -0.43694,-0.49582 -0.65785,-0.27722 -1.14477,-0.36283 -1.97469,-0.39644 m -10.30209,-9.74938 c 1.44784,-1.29559 4.31853,-3.31222 8.8936,-3.20593 6.03756,0.12553 9.22712,2.95601 9.52416,9.72697 0.12238,2.79227 -0.0804,10.58074 -0.1287,12.52125 -0.007,0.27837 -0.1014,0.47084 -0.47658,0.47802 -0.99424,0.0399 -3.29125,0.0241 -4.34668,0.0103 -0.5326,-0.0258 -0.59437,-0.29014 -0.60126,-0.56678 -0.005,-0.18098 -0.0201,-0.71761 -0.0313,-1.15512 -0.006,-0.23211 -0.22407,-0.2255 -0.27981,-0.16604 -1.41624,1.51219 -3.73566,2.24243 -6.20216,2.24243 -3.74888,0 -7.48627,-2.20537 -7.47478,-6.57274 0.0115,-4.4728 3.18296,-6.67904 6.66697,-7.19928 2.23095,-0.33209 4.74571,-0.0368 6.65003,0.71989 0.1218,0.0488 0.37057,-0.0218 0.37258,-0.19448 0.008,-0.56994 -0.0198,-1.65611 -0.12927,-2.1709 -0.27951,-1.31168 -1.37372,-2.36711 -3.67246,-2.6515 -0.47342,-0.0583 -0.95,-0.0776 -1.42716,-0.0396 -1.82733,0.14364 -4.02638,1.5685 -4.93703,2.10196 -0.2143,0.12525 -0.54983,0.0336 -0.65842,-0.10629 -0.53145,-0.68658 -1.86726,-2.6946 -1.9724,-3.01548 -0.10514,-0.32002 0.0431,-0.58948 0.2301,-0.75782 l 5.8e-4,0.001 z"
           inkscape:connector-curvature="0"
           style="fill:#000000" />
        <path
           id="path3378"
           d="m -266.27643,257.8989 c -0.0359,-6.23808 4.3105,-11.50058 11.36815,-11.54683 4.40386,-0.0287 7.60319,1.9678 8.16739,2.90947 0.11462,0.2212 0.0557,0.40591 -0.0236,0.62855 -0.37288,0.78712 -1.31455,2.30793 -1.98561,3.16974 -0.28584,0.36713 -0.59609,0.0526 -0.95661,-0.1873 -1.00057,-0.66647 -2.90172,-1.48146 -4.77271,-1.48146 -3.39439,5.8e-4 -5.92208,2.32804 -5.89393,6.61009 0.0264,4.10912 2.44755,6.36735 5.90571,6.44922 1.80779,0.0454 3.55928,-0.99366 4.50152,-1.84485 0.29589,-0.25825 0.60212,-0.12898 0.94024,0.13531 0.66359,0.67824 1.61532,1.72534 2.14303,2.4461 0.34559,0.40046 0.0871,0.7923 -0.0373,0.94972 -1.43176,1.81181 -4.19702,3.33664 -7.85656,3.35733 -7.66265,0.0537 -11.46381,-5.33404 -11.49914,-11.59423"
           inkscape:connector-curvature="0"
           style="fill:#000000" />
        <path
           id="path3380"
           d="m -227.69916,269.21275 c 0.35967,-0.027 4.19788,-0.55673 5.37598,-0.82648 0.29244,-0.0666 0.39643,-0.31255 0.23298,-0.55615 -0.65785,-0.98649 -2.38751,-3.78795 -4.19903,-6.29582 -1.66617,-2.30592 -3.42226,-4.33405 -3.99019,-5.11427 -0.13846,-0.1896 -0.13099,-0.37633 0.0198,-0.52341 1.08043,-1.05715 5.59976,-5.4883 7.29897,-7.31821 0.65785,-0.71186 0.26285,-1.01809 -0.29589,-1.18442 -1.07928,-0.32174 -2.82502,-0.72277 -3.81782,-0.93219 -0.41856,-0.0885 -0.92272,-0.0575 -1.2887,0.31887 -1.69891,1.5843 -6.88386,6.7882 -8.43167,8.34377 -0.27865,0.28066 -0.44096,0.21832 -0.4424,-0.1827 -0.0126,-2.99911 -0.0718,-15.83952 -0.17897,-17.95153 -0.007,-0.27922 -0.34328,-0.49123 -0.53259,-0.50128 -0.97328,-0.0508 -3.43202,-0.0655 -4.40099,-0.009 -0.27147,0.0307 -0.53087,0.30738 -0.55443,0.54122 -0.22349,3.37714 0.0948,28.168 0.22752,31.63593 0.009,0.25078 0.19621,0.44527 0.43435,0.45934 0.96667,0.056 3.35762,0.0523 4.47395,0.0313 0.54926,0 0.61648,-0.38609 0.61648,-0.38609 l 0.0827,-6.65232 c 0,0 0.0566,-0.29588 0.14823,-0.39356 0.39356,-0.42372 1.48231,-1.59061 1.94654,-2.04163 0.11146,-0.1083 0.28727,-0.10054 0.40103,0.0526 0.55156,0.74403 2.12437,3.16285 3.58226,5.32312 1.33954,1.98447 2.59003,3.74572 2.67736,3.87011 0.20167,0.28727 0.43723,0.29876 0.61476,0.2933 l 0,-8.6e-4 z"
           inkscape:connector-curvature="0"
           style="fill:#000000" />
        <path
           id="path3382"
           d="m -298.97645,269.18977 c 0.33754,0.0112 2.89855,0.008 4.03327,0.007 0.38207,0.007 0.58057,-0.28181 0.59321,-0.53719 0.24102,-4.86234 0.13789,-28.01231 -0.0144,-31.66782 -0.0126,-0.316 -0.14794,-0.43464 -0.36368,-0.46337 -0.97385,-0.13042 -3.74141,-0.1 -4.6285,0.13215 -0.17351,0.0451 -0.27578,0.17695 -0.28124,0.34644 -0.21718,9.42247 -0.0707,31.14585 -0.0247,31.55722 0.0457,0.41195 0.26113,0.61132 0.68658,0.62568 l -5.7e-4,0 z"
           inkscape:connector-curvature="0"
           style="fill:#000000" />
        <g
           id="g3384"
           transform="matrix(1.2391025,0,0,1.2391025,-376.35005,-19.765079)">
          <g
             id="g3386">
            <path
               id="path3388"
               d="M 13.997,105.78 C 8.503,105.822 3.849,102.548 2.133,97.438 2.067,97.24 2.01,97.048 1.955,96.855 0.085,90.311 3.711,83.465 10.21,81.273 L 114.45,46.35 c 1.267,-0.363 2.543,-0.548 3.807,-0.556 5.64,-0.044 10.422,3.302 12.18,8.52 l 0.156,0.504 c 1.95,6.816 -2.895,12.9 -8.7,14.85 -0.004,0.003 -1.06,0.36 -103.662,35.391 -1.387,0.471 -2.81,0.709 -4.234,0.721 l 0,0 z"
               inkscape:connector-curvature="0"
               style="fill:#70cadb" />
          </g>
          <g
             id="g3390">
            <path
               id="path3392"
               d="m 31.372,157.045 c -5.537,0.04 -10.207,-3.188 -11.903,-8.225 -0.064,-0.192 -0.125,-0.385 -0.18,-0.579 -1.896,-6.622 1.726,-13.54 8.247,-15.735 L 131.78,97.263 c 1.347,-0.45 2.738,-0.68 4.137,-0.693 5.552,-0.042 10.43,3.35 12.151,8.444 l 0.16,0.53 c 1.007,3.521 0.412,7.478 -1.59,10.601 -1.492,2.322 -6.198,4.366 -6.198,4.366 L 35.8,156.29 c -1.458,0.487 -2.945,0.744 -4.428,0.757 l 0,-0.002 z"
               inkscape:connector-curvature="0"
               style="fill:#e01765" />
          </g>
          <g
             id="g3394">
            <path
               id="path3396"
               d="m 118.148,157.268 c -5.56,0.043 -10.483,-3.465 -12.255,-8.723 l -34.79,-103.34 -0.174,-0.58 c -1.885,-6.59 1.74,-13.464 8.237,-15.654 1.3,-0.437 2.644,-0.665 3.997,-0.677 2.01,-0.015 3.955,0.438 5.787,1.343 3.063,1.525 5.354,4.15 6.449,7.392 l 34.787,103.331 0.101,0.332 c 1.954,6.842 -1.663,13.72 -8.16,15.91 -1.287,0.429 -2.627,0.654 -3.979,0.666 l 0,0 z"
               inkscape:connector-curvature="0"
               style="fill:#e8a723" />
          </g>
          <g
             id="g3398">
            <path
               id="path3400"
               d="m 66.435,174.674 c -5.56,0.043 -10.487,-3.465 -12.26,-8.73 L 19.394,62.608 c -0.06,-0.19 -0.12,-0.38 -0.178,-0.575 -1.88,-6.588 1.734,-13.463 8.229,-15.655 1.295,-0.43 2.634,-0.657 3.985,-0.668 5.561,-0.044 10.485,3.463 12.257,8.723 l 34.782,103.34 c 0.065,0.18 0.124,0.379 0.177,0.569 1.884,6.593 -1.732,13.472 -8.237,15.664 -1.292,0.431 -2.629,0.656 -3.978,0.667 l 0.004,0 z"
               inkscape:connector-curvature="0"
               style="fill:#3eb890" />
          </g>
          <path
             id="path3402"
             d="m 100.997,133.996 24.258,-8.294 -7.93,-23.55 -24.286,8.207 7.958,23.637 z"
             inkscape:connector-curvature="0"
             style="fill:#cc2027" />
          <path
             id="path3404"
             d="m 49.364,151.65 24.256,-8.293 -7.99,-23.73 -24.28,8.21 8.014,23.813 z"
             inkscape:connector-curvature="0"
             style="fill:#361238" />
          <path
             id="path3406"
             d="M 83.727,82.7 107.987,74.417 100.15,51.142 75.845,59.285 83.727,82.7 Z"
             inkscape:connector-curvature="0"
             style="fill:#65863a" />
          <path
             id="path3408"
             d="m 32.088,100.33 24.26,-8.283 -7.933,-23.572 -24.305,8.142 7.978,23.713 0,0 z"
             inkscape:connector-curvature="0"
             style="fill:#1a937d" />
        </g>
      </g>
    </g>
  </g>
</svg>
