<?xml version="1.0" encoding="UTF-8" standalone="no"?>
<!-- Created with Inkscape (http://www.inkscape.org/) -->

<svg
   xmlns:osb="http://www.openswatchbook.org/uri/2009/osb"
   xmlns:dc="http://purl.org/dc/elements/1.1/"
   xmlns:cc="http://creativecommons.org/ns#"
   xmlns:rdf="http://www.w3.org/1999/02/22-rdf-syntax-ns#"
   xmlns:svg="http://www.w3.org/2000/svg"
   xmlns="http://www.w3.org/2000/svg"
   xmlns:sodipodi="http://sodipodi.sourceforge.net/DTD/sodipodi-0.dtd"
   xmlns:inkscape="http://www.inkscape.org/namespaces/inkscape"
   width="300"
   height="300"
   id="svg2"
   version="1.1"
   inkscape:version="0.48.4 r9939"
   sodipodi:docname="60_schlumpfbeeren.svg">
  <defs
     id="defs4">
    <linearGradient
       id="linearGradient5392"
       osb:paint="solid">
      <stop
         style="stop-color:#ffdd55;stop-opacity:1;"
         offset="0"
         id="stop5394" />
    </linearGradient>
    <linearGradient
       id="linearGradient3944">
      <stop
         style="stop-color:#ffdd55;stop-opacity:1;"
         offset="0"
         id="stop3946" />
      <stop
         id="stop3952"
         offset="0.5039317"
         style="stop-color:#555aff;stop-opacity:1;" />
      <stop
         style="stop-color:#ffffff;stop-opacity:1;"
         offset="0.59794879"
         id="stop3954" />
      <stop
         style="stop-color:#ffdd55;stop-opacity:1;"
         offset="1"
         id="stop3948" />
    </linearGradient>
    <filter
       id="filter3091"
       inkscape:label="Fancy blur"
       inkscape:menu="Blurs"
       inkscape:menu-tooltip="Smooth colorized contour which allows desaturation and hue rotation"
       color-interpolation-filters="sRGB">
      <feGaussianBlur
         id="feGaussianBlur3093"
         stdDeviation="5"
         result="result91" />
      <feComposite
         id="feComposite3095"
         in2="result91"
         in="SourceGraphic"
         operator="over"
         result="fbSourceGraphic" />
      <feColorMatrix
         result="fbSourceGraphicAlpha"
         in="fbSourceGraphic"
         values="0 0 0 -1 0 0 0 0 -1 0 0 0 0 -1 0 0 0 0 1 0"
         id="feColorMatrix3097" />
      <feGaussianBlur
         id="feGaussianBlur3099"
         stdDeviation="5"
         result="result91"
         in="fbSourceGraphic" />
      <feComposite
         id="feComposite3101"
         in2="result91"
         in="fbSourceGraphic"
         operator="over"
         result="fbSourceGraphic" />
      <feColorMatrix
         result="fbSourceGraphicAlpha"
         in="fbSourceGraphic"
         values="0 0 0 -1 0 0 0 0 -1 0 0 0 0 -1 0 0 0 0 1 0"
         id="feColorMatrix3103" />
      <feGaussianBlur
         id="feGaussianBlur3105"
         stdDeviation="5"
         result="result91"
         in="fbSourceGraphic" />
      <feComposite
         id="feComposite3107"
         in2="result91"
         in="fbSourceGraphic"
         operator="over"
         result="fbSourceGraphic" />
      <feColorMatrix
         result="fbSourceGraphicAlpha"
         in="fbSourceGraphic"
         values="0 0 0 -1 0 0 0 0 -1 0 0 0 0 -1 0 0 0 0 1 0"
         id="feColorMatrix3109" />
      <feGaussianBlur
         id="feGaussianBlur3111"
         stdDeviation="5"
         result="result91"
         in="fbSourceGraphic" />
      <feComposite
         id="feComposite3113"
         in2="result91"
         in="fbSourceGraphic"
         operator="over"
         result="fbSourceGraphic" />
      <feColorMatrix
         result="fbSourceGraphicAlpha"
         in="fbSourceGraphic"
         values="0 0 0 -1 0 0 0 0 -1 0 0 0 0 -1 0 0 0 0 1 0"
         id="feColorMatrix3115" />
      <feGaussianBlur
         id="feGaussianBlur3117"
         stdDeviation="5"
         result="result1"
         in="fbSourceGraphic" />
      <feComposite
         id="feComposite3119"
         in2="result1"
         operator="arithmetic"
         k2="2"
         in="result1" />
    </filter>
  </defs>
  <sodipodi:namedview
     id="base"
     pagecolor="#ffffff"
     bordercolor="#666666"
     borderopacity="1.0"
     inkscape:pageopacity="0.0"
     inkscape:pageshadow="2"
     inkscape:zoom="1.3249068"
     inkscape:cx="167.64247"
     inkscape:cy="189.74289"
     inkscape:document-units="px"
     inkscape:current-layer="g4437"
     showgrid="false"
     inkscape:window-width="1366"
     inkscape:window-height="705"
     inkscape:window-x="-7"
     inkscape:window-y="-10"
     inkscape:window-maximized="1"
     units="px"
     showguides="true"
     inkscape:guide-bbox="true"
     gridtolerance="10"
     guidetolerance="9">
    <sodipodi:guide
       orientation="1,0"
       position="20,183"
       id="guide3608" />
    <sodipodi:guide
       orientation="0,1"
       position="-38,280"
       id="guide3610" />
    <sodipodi:guide
       orientation="0,1"
       position="183,20"
       id="guide3612" />
    <sodipodi:guide
       orientation="1,0"
       position="280,36"
       id="guide3614" />
    <sodipodi:guide
       orientation="0,1"
       position="340.81128,50.010351"
       id="guide4474" />
  </sodipodi:namedview>
  <metadata
     id="metadata7">
    <rdf:RDF>
      <cc:Work
         rdf:about="">
        <dc:format>image/svg+xml</dc:format>
        <dc:type
           rdf:resource="http://purl.org/dc/dcmitype/StillImage" />
        <dc:title />
      </cc:Work>
    </rdf:RDF>
  </metadata>
  <g
     inkscape:label="Ebene 1"
     inkscape:groupmode="layer"
     id="layer1"
     transform="translate(0,-752.3608)">
    <g
       transform="scale(0.89824283,1.1132847)"
       style="font-size:81.19001007px;font-style:normal;font-variant:normal;font-weight:normal;font-stretch:normal;line-height:125%;letter-spacing:0px;word-spacing:0px;fill:#000000;fill-opacity:1;stroke:none;font-family:Edmunds;-inkscape-font-specification:Edmunds"
       id="text4275">
      <g
         id="g4437"
         transform="translate(-282.77431,34.133228)">
        <path
           style="fill:#ffff00;fill-opacity:1"
           d="m 300.15707,641.71059 c 0.36399,0.34973 0.57656,0.54968 0.94155,0.90035 48.78445,46.87157 88.92413,85.19625 89.20262,85.19625 0.27854,0 0.0391,-0.73618 -0.55795,-1.66003 -0.59096,-0.91446 -29.69733,-38.87775 -64.72247,-84.43657 l -24.86375,0 z m 46.17055,0 c 22.78523,41.93061 45.56185,83.7599 45.82184,84.01453 0.35333,0.3459 0.76526,0.53616 0.90667,0.42204 0.14084,-0.11362 -12.6895,-38.09225 -28.52531,-84.43657 l -18.2032,0 z m 35.67408,0 c 0.0187,0.11968 0.0161,0.1897 0.0349,0.30949 7.31418,46.64 13.50777,84.80235 13.77445,84.80235 0.26653,0 0.48802,-38.29536 0.48821,-85.11184 l -14.29753,0 z m 31.07097,0 c -7.49335,41.80013 -14.92573,83.43471 -14.92523,83.7613 0.003,0.86352 1.21524,0.28608 1.53437,-0.73154 0.18816,-0.60002 13.91059,-38.24816 30.26891,-83.02976 l -16.87805,0 z m 35.98792,0 c -25.61059,45.08077 -47.21717,83.14649 -47.67005,84.01453 -0.46045,0.88255 -0.55484,1.60376 -0.2441,1.60376 0.31073,0 29.53305,-36.27833 64.96657,-80.61006 2.07853,-2.6005 1.96897,-2.45432 4.01028,-5.00823 l -21.0627,0 z m 47.32133,0 c -16.76368,15.53898 -31.04952,28.80135 -50.49468,46.81854 -23.39157,21.67377 -42.77468,39.73898 -43.06695,40.15028 -0.34304,0.48263 -0.32196,0.6815 0.10462,0.56273 0.36343,-0.10127 48.58569,-33.48352 107.16171,-74.19502 l 19.17961,-13.33653 -32.88431,0 z m 80.03128,0 -64.82708,33.3976 c -57.60053,29.66748 -105.39112,54.3546 -106.1853,54.83735 l -1.46462,0.87222 1.53437,-0.33763 c 1.67964,-0.34786 209.94136,-76.16034 210.69673,-76.69914 0.2121,-0.15131 0.32442,-5.31465 0.31385,-12.0704 l -40.06795,0 z m -293.58752,10.91682 0,20.68007 c 51.04007,27.33201 96.96928,51.91739 99.9432,53.48681 3.16174,1.66854 5.89115,2.89977 6.06773,2.75734 0.39066,-0.31518 11.06873,7.43128 -106.01093,-76.92422 z m 333.02778,30.49958 c -0.42067,0.12059 -47.02632,11.0097 -103.5699,24.19709 -56.54359,13.18739 -103.29473,24.10947 -103.88374,24.25336 -0.58898,0.14387 -1.08104,0.49903 -1.08104,0.78781 0,0.31316 0.80174,0.42626 1.98771,0.28136 1.09385,-0.13376 48.1915,-5.44711 104.65093,-11.78905 l 102.62835,-11.50768 0,-13.22399 c 0,-10.355 -0.1326,-13.17074 -0.73231,-12.9989 z m -333.02778,7.84999 0,14.88402 c 45.95115,11.44861 89.82667,22.36427 94.50317,23.52182 10.21654,2.52886 11.3064,2.71736 9.62468,1.68817 -0.44768,-0.27397 -52.1477,-20.15075 -104.12785,-40.09401 z m 0,29.0365 0,12.94263 c 0.78854,0.009 0.70748,0.0192 1.4995,0.0281 55.02903,0.61882 101.08726,1.14365 102.34937,1.18172 1.26216,0.0381 2.30155,-0.0955 2.30155,-0.3095 0,-0.18033 -48.53085,-6.47324 -106.15042,-13.84298 z m 145.9394,14.51825 c -7.59837,-0.009 -13.29895,0.007 -17.3314,0.0281 -5.37659,0.0282 -7.77646,0.0899 -7.77646,0.16881 0,0.17132 2.39046,0.5886 5.33542,0.9285 2.94502,0.33991 50.24351,6.02129 105.10427,12.63313 54.86071,6.61185 100.3716,12.04545 101.12885,12.0704 l 1.36001,0.0563 0,-12.54873 0,-12.52058 -61.93271,-0.3095 c -63.21154,-0.31009 -103.09289,-0.48071 -125.88798,-0.50645 z m -42.85771,1.20986 c -0.82636,-0.0206 -47.1599,4.76851 -103.08169,10.6636 l 0,13.42094 c 50.86394,-11.51535 101.38342,-23.00805 102.45399,-23.353 1.917,-0.61775 1.997,-0.69747 0.6277,-0.73154 z m 20.85346,1.60376 c -1.26173,0.24639 -8.90687,-2.66355 107.96377,41.05063 55.53388,20.77185 101.15539,37.77612 101.40783,37.78685 0.2524,0.01 0.45334,-6.40631 0.45334,-14.26503 l 0,-14.29316 -5.02157,-1.23799 C 557.78762,773.19709 407.48081,737.20481 406.76083,737.34535 z m -18.09858,0.22509 -1.53436,0.36577 c -0.82997,0.19478 -47.72433,16.80682 -104.30221,36.97089 l 0,16.57219 c 52.04883,-26.34395 103.74805,-52.56767 104.30221,-52.92409 l 1.53436,-0.98476 z m 14.36728,0.73154 c -0.0782,0.0167 0.0241,0.15296 0.0697,0.25322 0.131,0.28811 32.31225,23.24881 71.52251,51.03897 39.21027,27.79011 87.00082,61.68615 106.1853,75.32046 19.18443,13.6343 35.07289,24.79834 35.32535,24.81608 0.25245,0.017 0.46527,-8.90577 0.45334,-19.83598 l -0.0349,-19.86412 -27.33967,-14.3213 C 574.16099,827.84273 539.4001,809.61548 511.96971,795.19326 412.94532,743.12868 403.57681,738.18491 403.02953,738.30198 z m -13.11188,0.90035 c -0.0595,-0.009 -0.13659,-0.002 -0.24411,0.0281 -0.36485,0.10103 -48.4427,32.82315 -106.84786,72.73194 l 0,25.49134 12.30982,-11.19818 c 51.77987,-47.14713 94.38526,-86.0536 94.67753,-86.46238 0.2579,-0.36066 0.28318,-0.56304 0.10462,-0.59086 z m 12.03084,1.23799 c -0.20855,0.004 -0.0188,0.44908 0.52308,1.26613 0.94573,1.42575 131.35919,167.91243 132.72291,169.43587 l 48.228,0 -0.59283,-0.50645 c -0.8555,-0.74678 -38.65862,-36.466 -84.04156,-79.37207 -45.38291,-42.90605 -85.66822,-80.96874 -89.51647,-84.57725 -4.5203,-4.23863 -6.86431,-6.25578 -7.32313,-6.24623 z m -9.86878,0.3095 c -0.0755,-0.036 -0.43902,0.39391 -0.59282,0.39391 -0.29743,0 -67.85792,82.48797 -108.66121,132.52124 l 0,37.47735 10.63596,0 8.75288,-15.19352 c 5.01912,-8.68986 19.4192,-33.47362 31.97764,-55.06244 52.95123,-91.02662 58.21455,-99.98066 57.88755,-100.13654 z m 4.70773,0.36577 c -0.0405,0.0141 -0.0717,0.0562 -0.10462,0.0844 -0.13159,0.11316 -0.53792,30.07378 -0.90667,66.59826 -0.36875,36.52446 -0.83884,74.92173 -1.04616,85.30879 l -0.3836,18.03527 31.31508,0 C 425.47655,908.82447 397.37724,741.41237 397.13616,741.2 c -0.0963,-0.0849 -0.22733,-0.12686 -0.34872,-0.0844 z m 2.78976,0.36577 c -0.034,0.004 -0.0539,0.018 -0.0697,0.0563 -0.16872,0.4084 57.44152,164.73833 59.45679,169.60469 l 35.08125,0 c -0.003,-0.01 0.003,-0.0184 0,-0.0281 -0.26817,-0.78504 -89.57924,-161.99933 -92.89905,-167.69143 -0.68239,-1.17001 -1.33166,-1.9674 -1.56924,-1.94139 z m -5.71901,1.12545 c -0.11636,-10e-4 -0.22645,0.0421 -0.31385,0.11254 -0.17486,0.14108 -14.45862,37.78352 -31.73354,83.64876 -17.27495,45.86525 -31.59542,83.88187 -31.83815,84.49285 l 0,0.0281 -0.10462,0.25323 32.84944,0 c 0.0962,-0.78009 7.16533,-38.27033 15.86677,-84.15521 8.76069,-46.19747 15.76596,-84.12404 15.58779,-84.26776 -0.0891,-0.0724 -0.19749,-0.11151 -0.31384,-0.11254 z"
           id="path3129"
           inkscape:connector-curvature="0"
           inkscape:transform-center-x="-53.588673"
           inkscape:transform-center-y="49.060052" />
        <path
           style="font-size:81.19001007px;font-style:normal;font-variant:normal;font-weight:normal;font-stretch:normal;line-height:125%;letter-spacing:0px;word-spacing:0px;fill:#000000;fill-opacity:1;stroke:none;font-family:Edmunds;-inkscape-font-specification:Edmunds"
           d="m 522.78819,796.6061 c 0.20144,-0.0956 0.7208,-0.24709 1.15417,-0.33692 l 0.7879,-0.1633 -1.61199,-0.64435 c -1.48081,-0.59194 -1.86591,-0.84969 -4.73283,-3.16781 -1.71648,-1.38788 -3.73195,-3.07774 -4.47885,-3.75524 -1.22975,-1.11552 -1.87764,-1.77412 -4.82023,-4.90003 -0.49725,-0.52823 -0.96114,-0.97863 -1.03085,-1.00086 -0.0697,-0.0222 -0.42995,0.0618 -0.80049,0.18668 -0.51854,0.1748 -0.67371,0.31123 -0.67371,0.59232 0,0.20085 -0.41204,1.07182 -0.91564,1.93547 -0.5036,0.86366 -0.91564,1.61408 -0.91564,1.66761 0,0.14899 -1.68094,1.96376 -2.20563,2.38123 -0.45552,0.36245 -0.50576,0.368 -2.67317,0.29552 -2.29398,-0.0768 -2.38395,-0.10042 -3.37273,-0.88438 -0.92317,-0.732 -1.80697,-2.24794 -2.75778,-4.73034 -1.19128,-3.11016 -0.71262,-4.87634 2.51207,-9.26904 0.85174,-1.16027 1.1583,-2.11388 1.92197,-5.97867 0.18141,-0.91811 1.06863,-2.53559 1.81393,-3.30698 1.34635,-1.39343 4.41039,-2.06842 6.62523,-1.45952 0.81203,0.22325 1.96116,0.97133 2.00269,1.30374 0.0908,0.7272 0.1623,1.05772 0.27267,1.26106 0.20706,0.38151 0.24439,0.49391 0.4218,1.27018 0.0929,0.40634 0.25325,0.91516 0.35638,1.13071 0.10315,0.21556 0.24563,1.44354 0.31662,2.72884 0.12463,2.25601 0.14496,2.34732 0.58735,2.63707 1.33691,0.87564 2.87846,1.46097 6.75345,2.56447 4.24354,1.20844 5.37852,1.64765 6.53172,2.52762 0.53976,0.41189 1.02286,0.74888 1.07356,0.74888 0.13292,0 1.01054,-1.74149 1.22861,-2.43796 0.17994,-0.5747 1.14497,-4.32862 1.84222,-7.16613 0.84544,-3.44067 1.33006,-5.33919 1.67813,-6.57433 0.20599,-0.73094 0.44227,-1.76154 0.52506,-2.2902 0.0828,-0.52867 0.36779,-1.69261 0.6333,-2.58653 0.26553,-0.89393 0.48419,-2.0557 0.48592,-2.5817 0.002,-0.52602 0.0755,-1.0268 0.16405,-1.11283 0.20442,-0.19874 0.75723,-2.14761 0.86556,-3.05153 0.0585,-0.4877 0.17353,-0.70731 0.39519,-0.75407 0.31598,-0.0667 0.75301,-0.9788 0.75301,-1.57166 0,-0.17598 0.12139,-0.35754 0.26977,-0.40347 0.28243,-0.0874 1.06427,-1.32575 1.26125,-1.99755 0.0631,-0.21514 0.38305,-0.65996 0.71108,-0.9885 0.32801,-0.32854 0.80241,-0.84365 1.05422,-1.14472 0.25178,-0.30104 0.76683,-0.79849 1.14454,-1.10542 0.3777,-0.30693 0.68674,-0.69863 0.68674,-0.87042 0,-0.22723 0.21425,-0.38644 0.78628,-0.58429 1.38828,-0.48013 3.43212,-2.71947 5.13526,-5.6264 0.67359,-1.14973 0.73773,-1.36473 0.74961,-2.51321 0.008,-0.7279 -0.16745,-2.05003 -0.41626,-3.14473 -0.23611,-1.03883 -0.3829,-1.98631 -0.32621,-2.10551 0.0567,-0.11919 0.0233,-0.21672 -0.0745,-0.21672 -0.0975,0 -0.17738,-0.26163 -0.17738,-0.5814 0,-0.31977 -0.0897,-0.76857 -0.19928,-0.99733 -0.10955,-0.22878 -0.31975,-0.84815 -0.46701,-1.37636 -0.27636,-0.9914 -0.49436,-2.05479 -1.19651,-5.83635 -0.10568,-0.56886 -0.28857,-1.13402 -0.40654,-1.25593 -0.39461,-0.40772 -1.02696,-1.44123 -1.02696,-1.67846 0,-0.129 -0.2949,-0.71836 -0.65532,-1.30968 -0.36041,-0.5913 -0.81216,-1.39037 -1.00389,-1.77565 -0.19172,-0.38529 -0.64609,-1.18317 -1.0097,-1.77308 -0.36363,-0.58988 -0.82434,-1.40498 -1.02382,-1.81132 -1.13891,-2.31982 -1.94243,-3.19831 -4.60187,-5.0312 -0.58355,-0.40218 -1.49004,-1.04605 -2.01441,-1.43081 -0.52438,-0.38475 -1.00811,-0.70058 -1.07498,-0.70184 -0.30712,-0.006 -2.07726,-2.03487 -2.92113,-3.34847 -0.98118,-1.52736 -1.03867,-1.60479 -2.9464,-3.9677 -2.73076,-3.38233 -3.25889,-4.05175 -3.25889,-4.13087 0,-0.0458 -0.28191,-0.4068 -0.62647,-0.80233 -0.34457,-0.39553 -0.84168,-1.04312 -1.1047,-1.43909 -0.263,-0.39599 -0.70216,-1.00271 -0.97588,-1.34826 -0.6903,-0.87146 -2.48632,-3.25367 -2.92391,-3.87825 -0.68044,-0.97117 -1.60193,-2.1407 -2.38622,-3.0285 -2.04511,-2.31496 -2.6593,-3.11225 -2.98387,-3.87344 -0.19303,-0.45268 -0.42576,-0.89679 -0.51717,-0.98689 -0.45179,-0.44539 -0.61484,-1.61646 -0.58856,-4.22712 0.0276,-2.73904 0.0568,-2.9348 1.04589,-7.01839 0.43681,-1.80324 0.60971,-3.92551 0.34308,-4.21103 -0.8836,-0.94618 -0.99472,-1.29224 -0.84214,-2.62286 0.15335,-1.33713 0.44031,-1.97721 1.10365,-2.46157 0.21219,-0.15493 0.47001,-0.53407 0.57295,-0.84253 0.24211,-0.72542 1.01266,-1.46079 1.53066,-1.46079 0.22271,0 0.49252,-0.0707 0.59957,-0.15706 0.13744,-0.11093 0.53627,-0.0856 1.35713,0.086 1.23959,0.25917 1.88201,0.55634 2.93214,1.35635 0.63704,0.48532 0.65178,0.52082 0.49634,1.19581 -0.0881,0.3826 -0.15819,0.84195 -0.15574,1.02078 0.002,0.17881 -0.0689,0.36173 -0.15866,0.40646 -0.0897,0.0448 -0.12057,0.21268 -0.0686,0.37319 0.0762,0.23501 0.16197,0.26274 0.44062,0.14241 0.52085,-0.2249 1.07856,0.0747 1.07856,0.57949 0,0.80974 -0.85054,2.41885 -1.63066,3.085 -0.41251,0.35224 -0.75,0.69407 -0.75,0.75964 0,0.1632 -0.62656,0.60828 -0.85629,0.60828 -0.1026,0 -0.28406,-0.1496 -0.40329,-0.33246 -0.16458,-0.25239 -0.18833,-0.26128 -0.0986,-0.0369 0.0649,0.16253 0.14676,0.52822 0.18168,0.81265 0.24538,1.99855 0.48798,3.0822 0.91193,4.0732 0.6697,1.56557 0.98315,3.11454 0.9907,4.89599 0.004,0.82916 0.0783,1.66028 0.16608,1.84694 0.0879,0.18668 0.26253,0.60537 0.38818,0.93044 0.12565,0.32505 0.37292,0.724 0.5495,0.88652 0.17657,0.16253 0.35213,0.37242 0.39013,0.4664 0.0674,0.16676 2.0501,1.95845 4.30535,3.89062 1.18428,1.01462 4.23673,3.96128 6.37768,6.15663 0.70092,0.71873 1.40138,1.41495 1.55659,1.54717 0.15521,0.13219 0.61183,0.58848 1.01472,1.01398 0.40288,0.42548 0.8571,0.90343 1.00938,1.06209 0.26308,0.27412 0.30581,0.24203 0.85819,-0.6446 l 0.5813,-0.93307 -0.16011,-3.97926 c -0.10088,-2.50609 -0.0954,-4.07691 0.0149,-4.243 0.52259,-0.78787 5.29184,-0.99361 8.02616,-0.34624 0.84676,0.20048 1.71205,0.46045 1.92284,0.57772 1.21841,0.67782 2.19027,1.70941 2.76054,2.93016 0.24756,0.52993 0.42268,0.70263 0.71502,0.70507 0.51041,0.005 1.78829,0.47865 2.09498,0.77771 0.18774,0.18305 0.44664,0.21727 1.14132,0.1509 0.587,-0.0561 0.99266,-0.0228 1.1701,0.0961 0.17567,0.11763 0.52434,0.14742 0.98721,0.0843 1.8052,-0.24607 2.6789,0.67764 2.86118,3.02495 0.24179,3.11327 0.5102,4.81321 0.85955,5.44375 0.19556,0.35292 0.52226,1.00122 0.72604,1.44062 0.20375,0.43941 0.43641,0.79891 0.517,0.79891 0.22384,0 1.95297,1.47646 2.7179,2.32071 0.37414,0.41295 1.09229,1.15304 1.5959,1.64462 l 0.91564,0.89383 1.64816,0.005 c 2.03942,0.006 2.23307,-0.0994 3.03581,-1.65789 0.54399,-1.05611 0.73275,-1.25122 2.25834,-2.33412 0.91561,-0.64991 2.18672,-1.55449 2.8247,-2.01017 0.63799,-0.45567 1.47312,-1.16732 1.85585,-1.58141 0.70387,-0.76153 0.84639,-1.08004 2.12208,-4.7423 0.57761,-1.6582 0.81335,-2.09253 1.72424,-3.17675 0.58033,-0.69076 1.23357,-1.54 1.45165,-1.88723 0.38015,-0.60528 0.38448,-0.66015 0.10498,-1.3298 -0.26981,-0.64645 -4.0053,-5.36501 -4.33504,-5.4759 -0.0805,-0.027 -0.14648,-0.13792 -0.14648,-0.24628 0,-0.1083 -0.0675,-0.21917 -0.15006,-0.24626 -0.12753,-0.0418 -0.68098,-0.65155 -2.04001,-2.24732 -0.68687,-0.80652 -1.88386,-1.92612 -3.6584,-3.42189 -1.06397,-0.89682 -2.34614,-2.01365 -2.84924,-2.48185 -1.15065,-1.07083 -2.52133,-1.83352 -3.52028,-1.95882 -0.58228,-0.073 -1.29286,0.0194 -2.88616,0.37548 -1.88357,0.42093 -2.18825,0.45275 -2.79855,0.29229 -0.96724,-0.2543 -3.92252,-1.50407 -3.98552,-1.68543 -0.0289,-0.0831 -0.1819,-0.49111 -0.34008,-0.90665 -0.28128,-0.739 -0.2773,-0.77294 0.18201,-1.55142 0.46746,-0.7923 2.02824,-2.24548 2.27796,-2.12095 0.072,0.036 0.23199,-0.13123 0.35535,-0.3715 0.12335,-0.24026 0.85027,-0.90431 1.61538,-1.47566 1.51477,-1.13118 2.01115,-1.26367 2.81738,-0.75199 0.24858,0.15776 0.81594,0.40173 1.26081,0.54214 0.88599,0.27967 1.82677,0.82736 3.08095,1.79367 0.44828,0.34539 0.88008,0.62796 0.95955,0.62796 0.13903,0 2.32141,1.49352 3.40371,2.32933 4.69067,3.6224 5.1665,3.97148 6.17903,4.5333 0.49499,0.27467 1.00117,0.59879 1.62765,1.04229 0.11481,0.0812 0.62067,0.41336 1.12412,0.73796 1.90313,1.22703 3.67723,2.49053 4.85432,3.45721 2.82941,2.32363 4.82068,4.07128 5.5518,4.87259 0.4472,0.49014 0.85825,0.85472 0.91344,0.81019 0.0552,-0.0445 0.20086,0.18969 0.32371,0.52052 0.18426,0.49618 0.17164,0.80267 -0.072,1.75051 -0.16246,0.63197 -0.42879,1.84715 -0.59184,2.70044 -0.46073,2.41092 -2.13339,7.82307 -2.92257,9.45636 -0.13743,0.28443 -0.38629,0.88284 -0.55301,1.3298 -0.16673,0.44696 -0.4606,1.0945 -0.65307,1.439 -0.19248,0.34449 -0.34995,0.65886 -0.34995,0.6986 0,0.0397 -0.28843,0.56931 -0.64095,1.17682 -0.35252,0.60752 -0.64095,1.16424 -0.64095,1.23716 0,0.16125 -0.82697,1.42985 -1.26818,1.94546 -0.6562,0.7668 -2.44696,3.96337 -2.89944,5.17564 -0.34634,0.92787 -0.46901,1.58976 -0.4696,2.53404 -9.4e-4,1.21966 0.0354,1.33423 0.79038,2.50513 1.16253,1.80292 2.05513,4.93614 1.48694,5.21947 -0.0894,0.0445 -0.2151,0.30773 -0.27953,0.58488 -0.0645,0.27716 -0.33382,0.75995 -0.59861,1.07286 -0.66563,0.78665 -1.53261,2.90743 -1.52475,3.72974 0.0147,1.53201 -0.32783,4.24931 -0.58867,4.67025 -0.1511,0.2438 -0.4191,1.37412 -0.59562,2.51184 -0.45924,2.96007 -1.14458,6.36597 -1.67858,8.34168 -0.54829,2.02862 -0.60154,3.3006 -0.29106,6.95102 0.16341,1.92123 0.34199,3.00133 0.60101,3.63493 0.26288,0.643 0.32115,1.00305 0.20327,1.25591 -0.18166,0.38967 -0.0857,3.98018 0.11785,4.40794 0.23327,0.49027 4.39458,4.20272 9.19411,8.20237 1.66299,1.38584 3.48753,2.98908 4.05454,3.56274 0.56701,0.57367 1.59622,1.58079 2.28712,2.23804 0.69091,0.65723 1.46222,1.41522 1.71402,1.68438 0.42002,0.44901 0.92951,0.97952 2.8757,2.99439 0.38243,0.39591 0.81891,0.83983 0.97001,0.98649 0.32264,0.31321 1.04005,1.07132 2.64987,2.80023 0.64318,0.69075 1.27836,1.35703 1.41153,1.48061 2.351,2.18203 4.20218,4.58626 4.82494,6.26643 0.3788,1.02198 0.35472,3.22203 -0.0451,4.12205 -0.36413,0.81964 -1.14853,1.52108 -2.17568,1.94554 -0.39265,0.16225 -1.04069,0.44168 -1.4401,0.62094 -0.72522,0.32547 -0.72559,0.32612 -0.2747,0.47134 0.24834,0.0799 0.32478,0.14962 0.16987,0.15477 -0.74537,0.0248 -4.66775,-0.44748 -6.00575,-0.72312 -2.08134,-0.42876 -4.80307,-0.74316 -6.44259,-0.7442 -1.3507,-9.3e-4 -1.44335,-0.0262 -5.03603,-1.37497 -2.013,-0.75576 -3.88473,-1.47053 -4.15937,-1.58837 -4.00293,-1.71757 -4.58703,-1.92039 -6.14352,-2.13318 -2.02919,-0.27743 -5.24842,-0.51877 -6.92176,-0.51893 l -1.29505,-1.2e-4 -0.40942,0.73092 c -0.22516,0.40201 -0.69596,0.93392 -1.04621,1.18204 -0.55166,0.3908 -0.77676,0.45099 -1.68342,0.45022 -0.57565,-4.3e-4 -1.28267,-0.10031 -1.57115,-0.22165 -0.2885,-0.12138 -0.70467,-0.22071 -0.9248,-0.22071 -0.22015,0 -0.48145,-0.0654 -0.58068,-0.14555 -0.35808,-0.28893 -2.19146,-0.45236 -3.97078,-0.35399 -1.7529,0.0969 -1.81547,0.1132 -3.1132,0.81443 -1.60366,0.86645 -2.19602,0.91063 -3.73219,0.27832 -1.25809,-0.51785 -1.71253,-0.83896 -1.71253,-1.21009 0,-0.14831 -0.0733,-0.26965 -0.16279,-0.26965 -0.0896,0 -0.15895,-0.0832 -0.15429,-0.18469 0.005,-0.10156 -0.0162,-0.51715 -0.0462,-0.92349 l -0.0548,-0.73877 -0.13116,0.59102 -0.13115,0.59102 -0.0259,-0.70024 c -0.0422,-1.13503 0.80403,-2.61093 2.21733,-3.86761 0.27698,-0.24631 0.50361,-0.49947 0.50361,-0.56264 0,-0.0631 0.12361,-0.11482 0.27468,-0.11482 0.1511,0 0.2797,-0.0832 0.28582,-0.1847 0.006,-0.10156 0.38049,-0.41741 0.83191,-0.70184 0.45143,-0.28443 0.96147,-0.64229 1.13343,-0.79525 0.17195,-0.15295 0.55987,-0.4929 0.86204,-0.75542 0.87852,-0.76329 1.16506,-1.12105 1.28986,-1.61049 0.35422,-1.38919 1.16912,-2.759 1.85795,-3.12317 0.23276,-0.12304 0.42319,-0.30008 0.42319,-0.39341 0,-0.25854 1.94379,-1.70923 2.71616,-2.02717 0.37551,-0.15455 1.1541,-0.39158 1.73022,-0.52671 0.57611,-0.13513 1.04746,-0.2818 1.04746,-0.32595 0,-0.044 -0.34129,-0.32201 -0.75844,-0.61747 -0.41716,-0.29547 -0.97342,-0.68916 -1.23613,-0.87486 -0.61332,-0.43352 -2.49488,-1.21379 -2.92698,-1.21379 -0.18282,0 -0.47732,-0.12922 -0.65446,-0.28714 -0.17713,-0.15793 -0.5522,-0.32792 -0.83348,-0.37777 -0.28127,-0.0498 -0.66396,-0.22665 -0.85043,-0.39289 -0.79665,-0.71024 -2.69603,-1.00557 -2.93729,-0.4567 -0.0625,0.14221 -0.21566,0.3583 -0.34034,0.4802 -0.1247,0.12191 -0.39388,0.55409 -0.5982,0.96042 -0.86258,1.71537 -2.38622,4.91977 -2.59941,5.46694 -0.22618,0.58049 -1.11846,2.25878 -1.47474,2.7738 -0.50018,0.72305 -2.16979,4.86146 -3.76903,9.34216 -0.96959,2.7166 -1.67883,4.31223 -2.52849,5.68858 -2.66111,4.31065 -3.19571,4.88402 -5.52117,5.92155 -0.77656,0.34648 -1.25492,0.65281 -1.23932,0.79362 0.0226,0.20303 -0.64967,0.22881 -5.86011,0.22485 -4.59563,-0.004 -5.80527,-0.0426 -5.51928,-0.1781 z"
           id="path3038"
           inkscape:connector-curvature="0" />
        <g
           id="g4582"
           transform="matrix(1.2788052,0,0,1.2788052,-302.74773,-156.61825)">
          <g
             id="g4592"
             transform="matrix(0.41207397,0,0,0.41207397,390.40103,390.79401)">
            <path
               inkscape:connector-curvature="0"
               id="path4590"
               d="m 571.22631,991.08552 c 0.29303,-0.38012 2.21737,-0.91683 4.27631,-1.19266 5.23179,-0.70092 18.46426,-11.19571 18.46426,-14.6442 0,-3.09793 -2.68894,-5.79411 -9.26249,-9.28741 -6.12304,-3.25388 -13.88799,-7.62345 -18.35955,-10.33148 -1.63747,-0.99167 -4.76356,-2.25634 -6.94686,-2.81038 -5.32788,-1.35203 -12.86952,-5.23254 -14.82902,-7.63021 -0.87532,-1.07104 -2.40575,-1.94734 -3.40094,-1.94734 -2.26877,0 -7.47759,-2.05053 -9.038,-3.55796 -0.6479,-0.62588 -3.25681,-1.38789 -5.7976,-1.69337 -4.31635,-0.51895 -16.3572,-5.13967 -17.60239,-6.75496 -0.30703,-0.39828 -1.41487,-0.72415 -2.46189,-0.72415 -1.047,0 -7.85162,-2.45169 -15.12137,-5.44815 -7.26972,-2.99649 -16.09992,-6.19614 -19.62264,-7.11033 -8.39895,-2.17965 -16.62661,-5.2625 -20.16607,-7.55609 l -2.84461,-1.84333 3.61941,-4.53629 c 2.44298,-3.06182 4.27066,-4.53628 5.62303,-4.53628 1.10198,0 3.30924,-0.54131 4.90504,-1.20292 2.10496,-0.87271 4.39452,-1.06224 8.34041,-0.69042 5.23573,0.49334 5.70953,0.37427 12.67971,-3.18675 12.96656,-6.62454 19.12559,-10.50483 20.44174,-12.87864 2.40437,-4.33656 2.85935,-4.71395 8.72688,-7.2385 6.67683,-2.87278 9.83203,-3.16969 15.06282,-1.41745 2.02469,0.67826 5.69466,1.59252 8.15549,2.03172 5.44909,0.97252 14.10946,4.168 15.84811,5.84761 0.70085,0.67705 1.64652,1.23098 2.10148,1.23098 0.45498,0 3.06224,1.05654 5.79391,2.34788 2.73168,1.29131 6.65894,2.71628 8.72726,3.1666 2.06829,0.45032 6.88664,2.29338 10.70741,4.09571 3.82077,1.80235 10.48904,4.71061 14.81837,6.46281 4.49252,1.81826 10.26976,5.01983 13.45827,7.45819 3.0727,2.34979 7.12245,4.79944 8.99942,5.44369 1.87698,0.64423 5.41591,2.65922 7.86432,4.47775 2.44839,1.81851 6.02106,3.95264 7.93925,4.74248 1.91821,0.78986 4.23878,2.46879 5.15684,3.73097 0.91805,1.26218 3.83277,4.07109 6.47717,6.24203 2.64437,2.17094 6.07401,5.45625 7.62136,7.3007 7.76412,9.25476 23.85284,8.42214 33.41241,-1.72913 2.15254,-2.28578 3.91372,-4.51597 3.91372,-4.95599 0,-2.24992 -7.4601,-11.20176 -10.42028,-12.504 -1.09165,-0.48021 -4.87663,-2.7973 -8.41106,-5.14907 -3.53442,-2.35178 -7.55368,-4.65519 -8.93167,-5.11872 -1.378,-0.4635 -4.51508,-2.13832 -6.97129,-3.7218 -5.40446,-3.48418 -8.60224,-5.04928 -20.84056,-10.20011 -5.18535,-2.18237 -11.21423,-4.72859 -13.39753,-5.65824 -2.18329,-0.92964 -8.21566,-3.25232 -13.40526,-5.16151 -5.18961,-1.90918 -11.68162,-4.53298 -14.42673,-5.83064 -2.7451,-1.29768 -7.65403,-3.11299 -10.90873,-4.03402 -3.25471,-0.92104 -8.37386,-2.43428 -11.3759,-3.36276 -3.00204,-0.92846 -6.57471,-1.97609 -7.93927,-2.32804 -1.36456,-0.35197 -5.04887,-1.5586 -8.18738,-2.68141 -6.06735,-2.17062 -6.9405,-3.53756 -4.15039,-6.49753 1.21642,-1.29045 1.37576,-3.20571 0.86043,-10.34348 -0.34783,-4.81788 -0.79606,-8.97536 -0.99605,-9.23884 -0.2,-0.26349 0.51005,-1.85298 1.57788,-3.53221 1.52162,-2.39286 2.14497,-5.7881 2.88223,-15.69914 0.51741,-6.95529 0.73891,-13.06767 0.49222,-13.58306 -0.24667,-0.51539 0.28354,-7.19891 1.17828,-14.85227 0.89471,-7.65336 1.82268,-15.70541 2.06212,-17.89346 0.38263,-3.4964 0.0605,-4.38387 -2.65977,-7.32696 -1.70234,-1.84179 -5.47064,-4.43836 -8.37402,-5.77017 -5.64844,-2.59099 -6.51853,-3.99723 -6.51853,-10.53527 0,-2.52816 -0.63209,-3.61146 -3.22533,-5.52778 -1.77394,-1.31088 -4.81557,-3.61063 -6.75916,-5.11055 -2.3739,-1.83198 -4.49123,-2.73112 -6.45065,-2.73931 -4.12601,-0.0173 -5.16119,-0.7703 -6.21172,-4.51888 -0.98674,-3.52098 -8.23413,-11.04232 -11.42943,-11.86145 -1.00264,-0.25704 -3.36238,-0.2358 -5.24388,0.0472 -3.13682,0.4718 -3.506,0.31876 -4.44599,-1.84308 -0.56566,-1.30096 -2.78404,-3.29083 -4.94965,-4.43983 -3.08824,-1.63852 -4.739,-3.4956 -7.74655,-8.71479 -3.08887,-5.36031 -4.65524,-7.09332 -8.16602,-9.03477 -2.38921,-1.32123 -5.19475,-3.16001 -6.23454,-4.08615 -1.0398,-0.92616 -2.4072,-1.68392 -3.0387,-1.68392 -0.6315,0 -2.1387,-1.07413 -3.34932,-2.38695 -1.21064,-1.31283 -2.82578,-2.38697 -3.58918,-2.38697 -2.5147,0 -4.50703,-2.43979 -4.50703,-5.51929 0,-2.36743 -0.90991,-3.91744 -4.21773,-7.18476 -2.31976,-2.29134 -5.87315,-4.84526 -7.89645,-5.67534 -2.23128,-0.91542 -4.71014,-2.9203 -6.30012,-5.0955 -2.91079,-3.98215 -3.42099,-4.14193 -14.74243,-4.61675 -7.10941,-0.29818 -8.03045,-0.52749 -9.75874,-2.42969 -1.16097,-1.27774 -2.85645,-2.10043 -4.32881,-2.10043 -1.59386,0 -4.20682,-1.4264 -7.65193,-4.17718 -2.87738,-2.29744 -7.77986,-6.08023 -10.89439,-8.40619 -3.47915,-2.59825 -5.67635,-4.89936 -5.69797,-5.9674 -0.0193,-0.9561 -0.67339,-2.63349 -1.45344,-3.72751 -0.78005,-1.09402 -1.43412,-2.85016 -1.45344,-3.90255 -0.0214,-1.16561 -1.55117,-3.06963 -3.91418,-4.87184 -5.59107,-4.26417 -7.44334,-7.44747 -6.11332,-10.50631 1.87204,-4.30549 1.30501,-7.52713 -1.81808,-10.32948 -2.86512,-2.57088 -2.93002,-2.58449 -13.74013,-2.88114 l -10.86142,-0.29806 -3.56642,2.51054 c -1.96152,1.38079 -4.05694,3.70217 -4.65648,5.15861 -0.93642,2.27484 -1.66183,2.72137 -5.14692,3.16818 -5.71188,0.73228 -7.73856,1.79086 -9.35055,4.884 -1.90089,3.64749 -1.7686,5.81568 0.58022,9.50934 1.09165,1.7167 1.98482,4.23906 1.98482,5.60525 0,3.26525 -5.26674,8.03328 -9.85793,8.92446 -2.555,0.49594 -4.36566,1.74677 -7.23869,5.00063 -6.58599,7.45897 -8.36676,9.83834 -9.06866,12.11704 -0.50836,1.65031 -1.86477,2.62719 -5.3689,3.86661 -2.57881,0.91212 -5.80518,2.07394 -7.16975,2.58182 -1.36456,0.5079 -3.15324,1.99031 -3.97482,3.29427 -3.5865,5.69226 -7.96438,10.62567 -9.85636,11.10711 -1.12604,0.28653 -2.04736,0.83813 -2.04736,1.22577 0,0.38764 -1.93392,1.39067 -4.29762,2.22895 -3.3787,1.19825 -4.97606,2.48794 -7.47065,6.03176 -1.93244,2.74525 -4.22925,4.86717 -5.87456,5.42724 -3.9242,1.33581 -12.12942,5.5604 -12.12942,6.24504 0,0.32213 -2.42103,1.68115 -5.38006,3.02004 -6.10723,2.76336 -7.19859,4.47398 -5.3994,8.46312 1.15002,2.54977 1.02505,3.16842 -1.42296,7.04457 -1.47605,2.33712 -2.6837,4.95611 -2.6837,5.81999 0,0.86387 -1.56304,3.33326 -3.47344,5.48753 -1.91038,2.15427 -3.47342,4.78769 -3.47342,5.85204 0,2.31506 1.67336,6.85606 3.54015,9.60688 6.34743,9.35328 7.73335,14.17852 4.92688,17.15337 -1.67665,1.77725 -2.07162,10.32732 -0.51273,11.09975 0.55409,0.27456 1.62172,1.67791 2.37253,3.11856 0.76545,1.46879 3.26143,3.64047 5.68222,4.94396 3.94788,2.12574 4.38315,2.69671 5.08895,6.67514 0.42452,2.39281 1.82644,6.14079 3.1154,8.32882 3.16947,5.38026 4.8355,11.56714 4.03548,14.98606 l -0.66038,2.82227 -4.67658,-0.44406 c -4.34497,-0.41256 -4.86569,-0.26387 -7.3436,2.09711 -1.46686,1.39765 -2.66702,3.06285 -2.66702,3.70044 0,0.63759 -1.49248,1.86527 -3.31664,2.72816 -3.57475,1.69101 -5.61504,4.44402 -5.61504,7.57658 0,2.03873 -4.82348,5.1136 -8.0311,5.11964 -0.86923,0.002 -2.39734,1.21915 -3.39578,2.70556 -2.24992,3.34953 -7.03316,5.25394 -13.19618,5.25394 -8.40356,0 -12.06952,3.99707 -9.42299,10.27406 1.32589,3.14472 1.29613,3.5607 -0.36695,5.12742 -3.8995,3.67359 -4.44981,5.14707 -2.7151,7.26968 1.83924,2.2505 7.31677,5.17668 9.69025,5.17668 2.79072,0 7.46157,-4.18538 8.13698,-7.29128 0.53096,-2.44159 0.29615,-3.06012 -1.44529,-3.80733 -2.58647,-1.10982 -2.69968,-2.42748 -0.20855,-2.42748 1.02886,0 2.53768,0.8056 3.35289,1.79022 3.03052,3.66024 6.65948,6.16631 8.92928,6.16631 1.28631,0 3.19689,0.50309 4.24574,1.11797 1.83635,1.07655 1.84337,1.22497 0.18968,4.00526 -2.35714,3.96298 -2.15999,5.62125 0.89753,7.54947 4.7702,3.00832 10.68123,1.64825 13.79103,-3.17316 2.05389,-3.18432 6.10232,-3.27096 7.03738,-0.15062 1.96374,6.55309 9.30621,12.04598 9.30621,6.96196 0,-3.16326 1.75195,-2.32029 4.03998,1.94387 1.68087,3.13265 2.64575,3.98268 4.74152,4.17717 2.38103,0.22097 2.65985,0.60123 2.93244,3.9993 0.22957,2.86152 0.87901,4.11948 2.72914,5.28626 1.33533,0.84212 2.42787,1.9425 2.42787,2.44528 0,0.50278 1.93277,2.5995 4.29504,4.6594 2.36226,2.0599 4.93014,4.49639 5.70635,5.41443 2.86135,3.3841 14.47447,10.88206 19.77086,12.76494 3.00204,1.06722 7.50507,2.81106 10.00674,3.87518 2.50166,1.06413 7.12425,2.1775 10.27243,2.47414 3.88973,0.36653 6.63367,1.15308 8.56289,2.45458 6.03979,4.07455 14.18836,3.06537 18.39585,-2.27831 1.32409,-1.68162 3.04617,-3.05751 3.82684,-3.05751 3.17845,0 8.72864,-3.63593 13.7653,-9.01767 5.15354,-5.50661 6.25616,-7.38735 8.59061,-14.653 0.89906,-2.79817 1.49778,-3.38152 3.47069,-3.38152 1.31131,0 2.63911,0.33067 2.95065,0.73481 0.31152,0.40417 2.90575,1.34527 5.7649,2.09137 2.85916,0.74609 5.86835,1.78 6.6871,2.29758 0.81872,0.51757 3.60332,1.81082 6.18795,2.8739 6.53267,2.68691 6.84009,3.93273 0.97587,3.95461 -4.70061,0.0176 -13.11827,2.46061 -13.11827,3.80733 0,1.07194 -10.74607,7.31433 -12.59139,7.31433 -4.90353,0 -21.06411,12.07681 -19.77229,14.77584 0.32423,0.67742 4.88247,2.86207 10.1294,4.8548 7.93985,3.01544 9.92208,3.48352 11.81851,2.79076 1.71121,-0.62509 2.73574,-0.55472 4.11427,0.28261 1.00961,0.61323 2.69366,1.12636 3.74233,1.14029 1.04866,0.0139 2.72804,0.62124 3.73194,1.34963 1.71078,1.24128 1.96864,1.21633 4.11173,-0.39783 2.43165,-1.8315 5.11753,-2.23758 6.12819,-0.92651 0.33734,0.43761 3.16146,0.79565 6.27582,0.79565 3.76646,0 6.90246,0.53284 9.36571,1.59131 5.39452,2.31805 8.67231,2.02421 14.03408,-1.25813 2.56003,-1.56718 7.42503,-3.58152 10.81109,-4.47631 9.89895,-2.61584 9.90702,-2.69661 0.98467,-9.87034 -6.95833,-5.59464 -11.34339,-10.80435 -10.00043,-11.88106 0.26249,-0.21044 3.01483,0.51713 6.11633,1.61681 3.1015,1.09969 6.63118,2.01083 7.84371,2.02475 1.21255,0.0139 3.0715,0.55098 4.13103,1.19347 1.05951,0.6425 2.5407,1.16818 3.29153,1.16818 0.75084,0 2.78676,0.85733 4.52427,1.90518 1.73751,1.04786 8.9647,4.31869 16.06042,7.26853 7.09572,2.94983 14.53661,6.39411 16.53531,7.65393 1.99871,1.25982 5.34809,2.85779 7.44306,3.55102 2.09499,0.69324 5.14882,2.05059 6.78629,3.01633 1.63749,0.96575 4.98686,2.69175 7.44307,3.83557 2.45621,1.14381 6.84685,3.71986 9.75701,5.72457 2.91014,2.00469 5.92459,3.6449 6.69875,3.6449 0.77418,0 1.40759,0.32895 1.40759,0.73101 0,0.40206 1.53193,1.88949 3.40428,3.3054 1.87235,1.41592 3.69348,3.50377 4.04697,4.63966 0.92734,2.98012 3.38517,4.85003 6.37489,4.85003 1.49355,0 4.85258,1.35578 7.8851,3.18261 2.90569,1.75045 5.64115,3.18261 6.07877,3.18261 0.43762,0 1.24291,1.0286 1.78954,2.28577 0.54663,1.25718 3.15037,3.94251 5.78609,5.9674 4.14781,3.18655 5.35384,3.68163 8.96873,3.68163 2.29708,0 4.41626,-0.31102 4.70928,-0.69114 z m 13.47808,-15.6667 c 0,-0.68224 0.45387,-1.01554 1.00859,-0.74068 0.55473,0.27488 0.75168,0.83308 0.43764,1.24045 -0.85073,1.1036 -1.44623,0.89782 -1.44623,-0.49977 z m -201.21082,-8.76248 c 1.50102,-0.65288 2.72912,-1.61119 2.72912,-2.1296 0,-1.2788 -3.0915,-7.91669 -4.26203,-9.15119 -1.19993,-1.26551 -7.64817,-1.24871 -9.71709,0.0253 -1.80979,1.11445 -6.86145,7.33365 -6.86145,8.44727 0,0.41061 1.50412,1.49185 3.34246,2.40276 3.95774,1.96107 10.76293,2.1479 14.76899,0.40546 z M 557.21886,900.2941 c 5.89333,-2.99644 6.27855,-5.60861 1.38757,-9.40927 -3.77849,-2.93617 -6.78443,-3.19983 -11.30212,-0.99133 -3.84562,1.87994 -5.63234,4.35454 -4.87978,6.75847 0.53803,1.71868 7.06589,6.01157 9.14133,6.01157 0.54608,0 3.08994,-1.06625 5.653,-2.36944 z m -25.6208,-0.91112 c 3.02012,-2.12597 3.44873,-2.84427 2.96735,-4.97283 -0.48879,-2.16131 -0.166,-2.66586 2.45896,-3.84331 2.68313,-1.20355 3.02165,-1.7647 3.02165,-5.00899 0,-2.81828 -0.55694,-4.10013 -2.43592,-5.60658 -2.95473,-2.36893 -5.40778,-2.4703 -8.75137,-0.36167 -1.38782,0.87523 -3.86774,1.59131 -5.51092,1.59131 -4.35119,0 -5.8622,0.65544 -7.97767,3.46047 -1.68423,2.23322 -2.05551,5.87008 -1.20648,11.81762 0.17243,1.20792 9.01773,5.40889 11.3886,5.40889 1.40222,0 4.07828,-1.0999 6.0458,-2.48491 z"
               style="fill:#c38967" />
            <path
               style="fill:#000000;stroke:none"
               d="m 378.43995,631.20903 2.10254,-5.39419 -3.78456,-4.04563 -6.72811,-6.06847 0,-4.04564 1.68204,-4.71991 -4.20508,-7.417 -2.52303,-1.01141 -15.97925,-0.33713 -5.46659,-0.33714 -4.20506,2.69709 -5.8871,5.05705 -0.4205,2.69709 -9.67165,3.37136 -3.36405,5.05706 2.94354,9.10268 0,5.73132 -5.04608,4.38278 -5.88709,2.02283 -4.20506,4.04563 2.10253,4.71991 14.29722,-5.73132 -38.68659,24.94811 -46.69833,35.58913 -9.24978,16.36319 0.51367,42.46703 73.29092,-4.36426 6.11238,28.95413 44.61692,19.85141 92.46822,8.13093 79.47573,-60.34746 -129.09551,-104.84948 -18.50229,-10.45123 z"
               id="path5138"
               inkscape:connector-curvature="0"
               sodipodi:nodetypes="cccccccccccccccccccccccccccccccccc" />
            <path
               style="fill:#fe0386;fill-opacity:1"
               d="m 569.49607,991.25313 c 11.30456,-3.02714 36.4016,-19.49316 10.38589,-26.32779 -20.17038,-10.7807 -40.37943,-21.61082 -62.43098,-27.98325 -9.12038,-5.37909 -23.62324,-6.57586 -5.15311,0.39077 20.85547,8.78429 40.85002,18.63197 61.14993,27.39949 23.62071,4.2383 10.72586,21.52689 -5.97097,23.08195 -6.11033,-3.75067 -0.89518,-10.22113 -7.74027,-5.36574 -17.25519,-16.37023 -38.29572,-28.19593 -57.60905,-41.56846 -13.16722,-12.09289 -22.97703,-6.59042 -35.74449,-16.74973 6.87157,-4.03894 47.31778,15.62567 20.3728,0.61791 -9.03469,-7.32259 -54.09066,-7.75878 -34.08184,-23.95589 0.25893,-5.02813 -5.33379,-7.7227 2.51596,-14.84425 -20.22174,3.56158 0.45442,-20.33019 12.35386,-21.51894 9.0001,-0.80877 24.05756,-18.26697 6.96147,-7.91353 -14.57645,8.459 -31.67697,20.13145 -35.21264,-2.40815 8.63476,-13.34443 33.4555,-19.72741 49.53675,-28.07989 7.8736,-7.14511 27.06453,-7.88183 34.07418,-2.41522 -3.6473,16.40977 -28.88346,16.33399 -36.7263,29.01985 12.36151,-4.87773 45.47429,-25.13934 35.3317,5.44343 -2.67403,15.7053 -31.33631,17.48605 -43.87755,27.87914 -7.29329,0.84781 -32.86754,16.56289 -11.54331,9.80975 21.3304,4.87119 33.01911,-17.86837 49.60179,-24.07297 19.51559,-4.58324 37.56867,10.94551 56.22802,15.04611 21.97132,8.37008 41.8143,20.68936 61.82048,32.51319 13.69142,9.37105 27.07659,33.78653 46.37295,18.84657 20.8982,-9.49764 -8.7508,-20.76702 -16.97698,-27.60794 -15.4354,-7.48939 -44.41909,-24.85422 -54.40367,-22.71588 19.85249,9.27239 40.549,16.0935 58.34362,28.84734 17.79217,3.1492 20.25208,23.34824 -0.40933,23.66771 -21.41702,-6.28244 30.54657,-10.36511 2.38997,-14.47672 -9.47419,-11.0257 -13.56368,-4.51241 -2.87446,3.40752 -12.23373,15.18852 -22.26595,-15.2779 -36.68721,-16.91895 -19.19645,-11.82763 -38.92889,-24.12962 -60.74405,-29.89012 -8.23268,-7.39516 -29.8578,-9.15557 -31.95751,-15.84607 9.27246,-1.8416 34.29551,11.7601 34.20372,5.2875 -15.1914,-3.99386 -28.08412,-12.84625 -38.8887,-11.42458 -12.69682,-10.73564 17.47724,-8.45781 16.79066,-3.99842 -1.68477,-20.63654 5.89909,-40.31186 4.25559,-61.28221 2.75424,-16.98647 6.30422,-35.1253 -14.56284,-18.79519 -14.58228,5.4553 -12.64856,-18.31568 0.86765,-17.56687 -0.007,-21.39232 -25.94134,-20.29152 -33.79137,-37.62393 -20.7528,2.35067 -24.27648,-27.16037 -43.7817,-32.13978 -10.34276,-6.76811 -21.62059,-28.50948 -32.36045,-28.55326 -5.1302,3.38613 -22.83365,-5.36263 -31.05608,-11.54325 -11.62699,-7.65618 -25.80963,-20.4532 -25.02653,-27.47427 -15.55618,-4.95242 -6.39221,-4.79928 -5.73123,-16.05762 -8.66528,-9.49226 -33.19112,-8.07147 -32.14256,7.67306 -4.51444,3.91208 -15.01473,-7.96429 -12.75556,7.92544 10.60278,18.26523 -22.98622,18.66926 -25.2247,36.09026 -20.39735,8.59675 -32.35048,28.8777 -53.29026,38.28146 -19.87284,5.17842 -11.72934,24.77652 -25.29315,37.93372 7.96348,11.82228 11.01168,23.14892 7.87315,35.65498 12.16741,10.59422 22.1601,26.73027 20.24133,44.20233 -19.17736,-4.54383 -24.64322,20.6872 -40.44934,27.39572 13.31726,12.7897 -28.97823,-10.76009 -16.25482,12.33447 -18.59649,14.65304 19.74963,16.20366 7.91854,-0.042 6.67294,4.9732 28.85379,7.39829 19.36172,18.58671 9.49405,11.74517 15.72811,-15.66558 23.2551,1.02464 3.77238,12.43134 9.90102,-6.05877 15.16806,10.31896 4.53597,-19.22542 8.11247,23.45628 11.1599,5.35884 -7.34857,-15.79794 -11.89698,-33.57358 -15.60651,-49.11975 -13.22598,-4.78475 0.57325,-15.54162 4.87673,-3.7991 3.80017,-10.27779 11.94928,-23.0316 24.58668,-18.98786 16.19687,-1.26259 47.65987,9.58342 42.49021,27.44647 -12.38726,7.4371 1.93516,19.93841 3.69699,3.17938 5.49859,-8.85134 17.48607,8.44188 10.37206,-5.51798 20.62128,-9.0161 23.7677,27.00792 25.80911,41.54158 2.85137,11.72412 -10.67988,36.08971 -17.87931,33.61524 12.52741,-18.87934 12.17655,-49.4231 -3.59104,-66.02572 6.38165,16.13327 10.48674,36.56366 3.78795,53.77903 -0.48078,15.73338 -13.28341,9.37012 -19.67576,14.91569 11.94112,8.21533 -35.1243,-0.49921 -5.36771,5.623 20.3545,10.51144 41.62384,-13.29315 49.07082,-30.72827 16.92147,0.0223 18.93792,6.43729 35.95471,13.08285 0.69391,6.52558 -23.99613,-2.09112 -29.6922,9.64431 -11.8559,3.0779 -38.65415,18.56357 -12.22119,21.75508 19.43795,1.45122 39.6109,7.07467 58.7177,3.34398 9.6517,-3.94854 22.4191,-6.42702 7.09131,-14.29504 -4.50909,-7.06444 -28.48046,-24.40077 -7.67635,-13.82639 17.65807,4.5243 25.9587,6.75787 42.38261,16.58451 22.21821,10.47085 46.31235,18.96197 64.89679,35.29312 11.22915,8.47382 25.97865,17.17764 36.74378,26.14147 l 3.45089,-0.52352 -5e-5,0 z m -80.06289,-54.35155 c 3.94461,-1.41659 3.91586,2.60713 0,0 z m -28.56379,-13.42814 c 2.62533,-3.73536 5.31392,5.16106 0,0 z m -45.28948,-1.40154 c -5.49055,-5.36085 8.7678,0.44808 0,0 z m -9.33371,-1.3732 c 4.72186,-5.15439 4.64025,5.0733 0,0 z m 47.65876,0.10572 c -2.8809,-7.78389 8.93131,4.31609 0,0 z m -19.05425,-6.29888 c 4.42332,-3.39529 5.93489,4.57512 0,0 z m -44.65838,-1.84937 c 3.17962,-7.61891 5.9983,6.48587 0,0 z m 32.65746,-4.01192 c -18.12386,-7.94006 -35.02244,-17.96199 -53.00332,-26.24501 -8.40414,-22.15222 18.40238,-4.44772 29.42773,-1.74805 13.59048,4.40852 32.02519,11.54035 27.49317,26.26542 4.5484,3.05496 -1.27486,5.89485 -3.91758,1.72764 z m -0.90039,-5.98071 c -2.62904,-3.04463 -1.03089,2.74604 0,0 z m 11.55553,4.21002 c -15.15493,-11.89894 11.00184,-31.72117 10.67218,-10.23217 5.2112,6.9538 -6.78605,13.9896 -10.67218,10.23217 z m -58.05655,-15.29101 c -26.4447,-13.20286 20.1041,5.5983 0,0 z m 102.31559,-1.70692 c 11.63973,-7.92466 9.97609,-0.76979 -0.99241,1.61763 l 0.99241,-1.61763 z m -61.52092,-5.14333 c -13.97087,-12.76614 -40.41372,-10.66309 -49.75673,-25.69218 20.01942,9.67066 -29.20865,-23.62986 -1.01899,-15.02498 8.53584,5.74174 35.27569,13.85422 12.80785,1.55618 -16.40334,-7.79309 -34.38603,-7.65231 -39.86652,-23.35326 -5.19941,-11.96695 -31.53626,-17.19383 -48.19403,-17.03915 -19.18707,-3.7711 -47.43933,-10.38798 -50.18185,-33.74194 14.59305,-2.35212 30.12706,13.23639 46.0348,15.5779 7.94637,4.22409 31.20507,11.55969 11.20056,1.40852 -19.53525,-5.89293 -36.69407,-16.63876 -55.25898,-23.90651 3.05025,-6.62172 29.27462,-4.56475 24.0104,6.70612 13.45717,10.14493 25.79683,-9.30959 36.53335,6.2533 8.21605,6.62251 16.94368,22.50284 33.50757,17.32003 10.29316,6.34693 30.60592,15.76425 32.08384,22.08257 -8.89329,3.80251 22.01397,12.21779 28.21213,15.25397 12.28929,10.1563 21.67887,4.64492 33.09424,-1.48104 5.32267,10.39589 -0.33759,36.40413 -12.92981,26.06276 -5.2732,-10.61997 15.77542,-19.09236 -5.39774,-14.3812 -12.2682,-2.77693 -18.52256,-0.54726 -2.54198,4.59528 14.71333,21.12223 -9.25269,5.23274 -18.85809,6.36944 4.53836,6.4367 33.33608,9.31052 24.17364,17.34486 -8.81392,-6.32268 -30.13162,-10.31673 -9.98856,-1.35638 9.38108,3.26609 26.26983,15.86989 16.41158,-2.59179 11.66808,-21.8228 30.80253,8.41282 12.86727,17.50652 -6.54083,0.10889 -10.82097,0.28987 -16.94395,0.53098 z M 387.4632,860.76265 c -6.1242,-0.82799 -0.17627,1.40035 0,0 z m -4.21773,-1.79178 c -11.18271,-9.09542 -17.32288,-3.94834 0,0 z m 11.99314,-19.48037 c -7.1551,-6.64868 -43.84617,-14.33394 -17.57525,-3.9145 4.41995,0.83949 15.94291,7.44739 17.57525,3.9145 z m -33.21452,-10.97237 c -3.42099,-6.65739 -34.30211,-14.60767 -14.01923,-4.48498 4.09068,0.91194 9.66312,7.44148 14.01923,4.48498 z m -2.08308,-11.80733 c -4.99318,-8.30778 -34.09742,-14.71756 -11.78601,-4.08144 3.66207,0.84022 7.98411,6.91551 11.78601,4.08144 z m -25.77895,-11.16984 c -3.51996,-8.26914 -39.02678,-14.67137 -13.85408,-5.15662 4.24932,1.26903 9.24476,7.6204 13.85408,5.15662 z M 260.93112,766.8756 c 4.74746,-5.72437 -8.26947,1.9371 0,0 z m 228.52324,117.68683 c 12.9135,-10.48281 7.86064,0.18931 0,0 z M 191.91084,845.9063 c 5.41374,-6.32852 2.72466,9.18945 0,0 z m 343.5259,0.65094 c 3.88754,-14.19472 13.52974,4.82276 0,0 z m -8.29204,-1.97636 c 2.57151,-8.10188 1.8756,7.86869 0,0 z m -89.49505,-3.24953 c 12.83672,-13.47955 32.72899,-25.8141 54.01645,-23.09946 -1.94396,5.12991 -28.09718,14.00502 -38.83753,20.81256 -3.59134,-1.1566 -15.7465,10.1103 -15.17892,2.2869 z m 96.2885,-6.16191 c -8.00294,-12.59245 1.29472,-23.04147 13.82701,-27.63029 0.0228,11.6332 6.04986,27.27416 -9.6412,31.00035 -2.80135,3.69586 -5.07916,-0.57865 -4.18581,-3.37006 z m -321.38694,4.7026 c 5.43836,-10.388 8.25577,4.05668 0,0 z m 314.77388,-7.59122 c 2.50741,-19.9326 4.85744,14.24632 0,0 z m -198.72732,2.72423 c -10.83718,-13.82871 -31.0827,-23.06758 -45.14777,-24.26473 18.60035,-3.05278 47.59595,4.1309 55.16023,20.31575 -3.18606,1.03622 -6.16294,6.44642 -10.01246,3.94898 z m 78.02784,-1.48737 c -6.59332,-4.83573 -37.08367,-14.96273 -15.38544,-12.96188 11.18501,3.95094 21.71798,-6.60202 33.39785,5.99074 -4.3527,2.31862 -12.73438,8.37227 -18.01241,6.97114 z M 255.76337,823.15323 c 0.12912,-4.28068 3.53066,2.54082 0,0 z m 273.36615,-6.06933 c 3.74414,-4.39059 2.82129,5.28142 0,0 z m -273.20919,-0.0723 c -13.91463,-3.33411 15.21048,-10.31864 -2.33063,-13.59139 -16.70366,-19.49622 28.94119,4.82538 18.05562,6.92977 -5.75708,2.54238 -7.68768,9.75684 -15.72499,6.66162 z m -20.54373,-0.98915 c 5.68819,-7.94883 5.97543,5.97535 0,0 z m 277.83288,-0.94292 c -1.26097,-12.63334 12.97511,6.22439 0,0 z m -18.3012,-3.10551 c -2.09325,-10.67692 11.42327,4.80415 0,0 l 0,0 z m 41.23075,-15.86899 c -6.24953,-9.84941 14.39515,-27.21715 15.39801,-13.75133 5.38233,14.40335 -16.82809,38.04301 -15.39801,13.75133 z m 10.41247,-10.45109 c 2.62811,-8.41842 -8.43425,5.37105 0,0 z m -189.54951,16.82913 c -0.76744,-9.50987 10.33062,3.39941 0,0 z m 62.88142,-0.86745 c -2.52486,-7.70459 10.43699,2.95763 0,0 z m 44.73956,-6.84817 c 5.04817,-5.2521 3.74617,5.96611 0,0 z M 388.20752,789.283 c 3.82092,-4.80345 3.66472,4.66363 0,0 z m -48.06211,-0.14126 c 1.94116,-11.0143 9.91617,6.58576 0,0 z m 185.70793,-4.77008 c -0.48445,-18.16104 10.14636,16.52855 0,0 z m -10.46709,3.01361 c -4.55077,-8.85799 9.8917,-0.0385 0,0 z m -204.14926,-5.58462 c 9.48791,-3.95001 2.5357,7.74685 0,0 z m 61.12153,-4.89451 c 9.20724,-4.63562 1.67955,12.40289 0,0 z m -66.97042,-0.87913 c -10.68392,-9.34115 11.95652,4.13204 0,0 z m -33.29237,-7.03315 c 4.35488,-9.21244 7.56259,9.7627 0,0 z m 237.18562,-5.23805 c 2.83636,-8.2782 3.12632,9.36296 0,0 z m -240.19404,-6.2688 c 8.32451,-1.8488 -0.65291,7.34729 0,0 z m -34.70311,2.02409 c 3.48949,-9.81246 11.56977,4.10828 0,0 z m 295.73772,-4.91535 c 7.71624,-8.54789 6.24784,11.76265 0,0 z m -216.84125,1.66766 c 5.6925,-8.9418 5.25299,8.72078 0,0 z m -29.27606,-6.36522 c 5.22132,-2.94461 5.22132,2.94461 0,0 z m 220.64405,-8.41605 c 2.40663,-11.06078 8.68444,6.54965 0,0 z M 236.5512,740.55606 c 5.79168,-8.88649 2.80817,7.89752 0,0 z m 240.43408,-6.95695 c -1.68878,-8.69359 10.74043,2.99409 0,0 l 0,0 z m -225.23393,-2.45418 c 3.91805,-6.27309 4.18095,6.33555 0,0 z m -20.15649,-11.2288 c 5.95225,-10.65753 8.97944,8.1083 0,0 z m 23.55549,-9.22374 c 2.09595,-3.14636 3.2301,4.15639 0,0 z M 471.17128,702.825 c -1.14506,-9.55845 10.51217,5.82936 0,0 z m -229.82972,0.53763 c -2.34535,-11.22707 9.92901,3.91856 0,0 z m 211.37251,-4.01639 c 3.34151,-4.85841 6.76513,7.83188 0,0 z M 262.0825,695.30987 c 1.73084,-11.35957 10.99144,4.76462 0,0 z m 73.03116,-1.49431 c 6.33544,-7.51997 7.0539,7.12598 0,0 z m -65.49896,-3.59135 c 8.39593,-9.56309 7.21716,8.90467 0,0 z m 143.40303,-7.49362 c -2.13891,-6.95767 10.89935,0.7493 0,0 z M 284.00461,668.01995 c 4.64348,-7.87014 5.88766,5.24362 0,0 z m 105.76503,-16.51821 c 2.2686,-10.90298 13.07648,7.74724 0,0 z m -78.9548,-6.033 c 2.55471,-8.91449 6.5228,5.42948 0,0 z m 10.62902,-5.47061 c 8.44855,-2.32116 -0.92163,6.85437 0,0 z m 27.17148,-6.90488 c 0.13214,-10.24876 10.13144,5.9096 0,0 z m 228.89409,342.92116 c 9.5476,-9.71471 -19.65636,5.65367 0,0 z m -9.19808,-1.72589 c 2.89827,-9.11164 -13.32763,5.63514 0,0 z m -13.62234,-3.39774 c -8.90692,-5.56383 -2.28487,4.40228 0,0 z m -172.64579,-5.24984 c 7.34306,-21.5155 -29.04371,0.26143 -6.38699,0.64403 l 3.70969,-0.0328 2.6773,-0.61128 0,0 z m -9.51862,-3.59549 c 5.64695,-7.34847 3.24128,7.82553 0,0 z m 280.65598,-40.1352 c 9.50872,-8.8574 -9.09452,-2.31244 0,0 l 0,0 z m -4.96204,-2.86952 c -4.27116,-4.95188 -2.66571,4.07513 0,0 z m -350.36053,-1.85652 c -10.4302,-5.16102 -20.92903,-22.46418 -30.51761,-22.04148 6.69556,8.45424 19.20285,21.98262 30.51761,22.04148 z m -1.01027,-12.33262 c 1.55789,-17.40563 32.484,-14.59337 23.14783,-38.308 -0.1733,-14.09222 -20.37392,-12.8116 -14.49667,-26.86804 4.79263,-8.70715 -9.32789,-18.22539 -13.55716,-8.84709 7.46508,20.41467 -23.15395,22.66184 -16.36134,42.60547 9.21883,13.16958 -2.81543,-30.59548 19.35536,-17.05038 26.93114,8.63524 9.53554,46.20338 -13.6171,26.76237 8.28136,5.76055 -0.5171,28.36732 15.52908,21.70567 z m -7.27514,-4.23482 c -0.007,-19.62888 11.96857,2.43877 0,0 z M 312.30159,875.912 c 4.12325,-9.08468 -20.26696,-28.27642 -3.32349,-18.13358 4.10814,0.071 10.79553,27.3811 3.32349,18.13358 z m -16.38807,-28.8972 c 2.71037,-4.76144 2.53867,3.25253 0,0 z m 0.73997,-11.70804 c 7.31525,-19.79454 -0.0801,21.49876 0,0 l 0,0 z m 260.51156,63.62086 c 12.75098,-14.63862 -28.53641,-6.47039 -5.83189,1.97957 l 2.61176,-0.48532 3.22013,-1.49424 0,-10e-6 z m -8.10599,-2.50741 c 0.23645,-9.08652 11.7259,4.15424 0,0 z m -18.54384,2.18781 c 6.04365,-5.6446 12.56453,-24.88995 -3.30834,-16.20079 -20.21713,-2.73501 -12.56042,24.55652 3.30834,16.20079 z m -11.30979,-4.35114 c 3.35612,-9.52407 12.13456,3.14053 0,0 z m 85.81258,-9.05781 c -6.74532,-6.7253 -44.19441,-16.13881 -18.82501,-5.43944 6.10534,1.47566 12.33279,8.27042 18.82501,5.43944 z m -142.25462,-0.64188 c 6.42467,-6.64482 34.8818,-16.95347 29.5363,-21.15294 -8.72689,7.89687 -31.66473,14.98998 -33.63379,22.49187 l 4.09749,-1.33893 0,0 z m -165.80043,-8.23562 c -1.29729,-5.05576 -8.72687,-3.17721 -0.34236,-8.02534 -14.61296,-10.38733 -14.62698,15.55919 0.34236,8.02534 z m 210.11275,-15.47491 c 7.59825,-13.73411 -17.34299,5.02379 0,0 z m 35.94753,-91.8528 c -3.51196,-3.11481 -2.39903,2.75966 0,0 z m -3.96963,-2.35897 c -6.84086,-6.4913 -5.93211,1.98949 0,0 z m 12.96186,-1.52858 c -7.60422,-7.88737 -18.28323,-3.86385 -3.29952,0.75978 -0.23776,0.62261 5.68663,1.60252 3.29952,-0.75978 z"
               id="path4586"
               inkscape:connector-curvature="0" />
            <path
               style="fill:#000000"
               d="m 569.49607,991.25313 c 11.30456,-3.02714 36.4016,-19.49316 10.38589,-26.32779 -20.17038,-10.7807 -40.37943,-21.61082 -62.43098,-27.98325 -9.12038,-5.37909 -23.62324,-6.57586 -5.15311,0.39077 20.85547,8.78429 40.85002,18.63197 61.14993,27.39949 23.62071,4.2383 10.72586,21.52689 -5.97097,23.08195 -6.11053,-3.74735 -0.8949,-10.22502 -7.73916,-5.36465 -17.25533,-16.37083 -38.29642,-28.19671 -57.61016,-41.56955 -13.16722,-12.09289 -22.97703,-6.59042 -35.74449,-16.74973 6.87157,-4.03894 47.31778,15.62567 20.3728,0.61791 -9.03536,-7.32261 -54.08963,-7.75875 -34.08184,-23.95589 0.25893,-5.02813 -5.33379,-7.7227 2.51596,-14.84425 -20.22174,3.56158 0.45442,-20.33019 12.35386,-21.51894 9.0001,-0.80877 24.05756,-18.26697 6.96147,-7.91353 -14.57645,8.459 -31.67697,20.13145 -35.21264,-2.40815 8.63476,-13.34443 33.4555,-19.72741 49.53675,-28.07989 7.87608,-7.14834 27.0566,-7.8757 34.07391,-2.41831 -3.642,16.41298 -28.88376,16.3362 -36.72603,29.02294 12.36151,-4.87773 45.47429,-25.13934 35.3317,5.44343 -2.67403,15.7053 -31.33631,17.48605 -43.87755,27.87914 -7.29329,0.84781 -32.86754,16.56289 -11.54331,9.80975 21.3304,4.87119 33.01911,-17.86837 49.60179,-24.07297 19.51559,-4.58324 37.56867,10.94551 56.22802,15.04611 21.97132,8.37008 41.8143,20.68936 61.82048,32.51319 13.69142,9.37105 27.07659,33.78653 46.37295,18.84657 20.89755,-9.49752 -8.74988,-20.76705 -16.97698,-27.60794 -15.4354,-7.48939 -44.41909,-24.85422 -54.40367,-22.71588 19.85249,9.27239 40.549,16.0935 58.34362,28.84734 17.79217,3.1492 20.25208,23.34824 -0.40933,23.66771 -21.41702,-6.28244 30.54657,-10.36511 2.38997,-14.47672 -9.47419,-11.0257 -13.56368,-4.51241 -2.87446,3.40752 -12.23373,15.18852 -22.26595,-15.2779 -36.68721,-16.91895 -19.19645,-11.82763 -38.92889,-24.12962 -60.74405,-29.89012 -8.23268,-7.39516 -29.8578,-9.15557 -31.95751,-15.84607 9.27246,-1.8416 34.29551,11.7601 34.20372,5.2875 -15.1914,-3.99386 -28.08412,-12.84625 -38.8887,-11.42458 -12.69682,-10.73564 17.47724,-8.45781 16.79066,-3.99842 -1.68477,-20.63654 5.89909,-40.31186 4.25559,-61.28221 2.75424,-16.98647 6.30422,-35.1253 -14.56284,-18.79519 -14.58228,5.4553 -12.64856,-18.31568 0.86765,-17.56687 -0.007,-21.39232 -25.94134,-20.29152 -33.79137,-37.62393 -20.7528,2.35067 -24.27648,-27.16037 -43.7817,-32.13978 -10.11971,-6.50132 -22.25472,-29.34381 -32.31151,-28.20847 -1.3357,13.93145 -7.81926,-8.97521 -18.23279,-3.61916 -11.88426,-3.84974 -27.17095,-22.53218 -34.04939,-24.48809 -3.68691,5.64014 -42.03788,6.7869 -23.80792,13.35317 6.47178,-11.00142 33.03077,-12.78867 27.96995,4.06821 4.23164,9.29201 17.47421,12.82593 7.57342,1.50855 11.66297,-10.58296 2.94811,14.67298 19.28764,6.69057 -0.8843,16.73183 26.85204,4.58644 26.87535,12.11597 -6.26025,5.652 22.7595,1.30336 11.58955,13.57888 -14.21625,1.09366 -0.10651,15.89199 1.26554,4.10106 5.14007,7.02541 9.80815,25.22705 16.2586,6.29899 7.3698,5.41739 22.97311,15.61213 16.98252,27.2298 8.8141,-10.5621 9.89661,8.70217 10.98417,7.76262 -7.64183,0.16295 -21.64268,-10.48109 -21.92165,8.54901 2.08218,14.34294 21.54174,-5.43745 5.80438,2.27636 -2.06266,-14.56048 6.54004,-6.0046 14.25203,-2.66408 13.75132,2.37975 -0.61102,-12.0755 14.38181,-5.16111 4.97756,-8.63773 9.08939,5.82128 3.75411,7.01613 7.94309,3.02503 29.78636,7.92102 24.36699,19.51455 -11.9164,-6.03102 -8.86723,1.4208 -11.19359,9.65215 -4.71846,-7.50878 -5.31678,-10.704 -9.70345,-2.1352 -5.71601,-8.7917 -5.38989,-1.211 -3.36724,5.38152 -13.32558,0.25419 -0.14231,12.61944 3.49058,-0.32684 10.90574,-2.62774 10.55389,13.17179 -3.00636,13.10885 7.83766,9.09809 6.19843,6.7274 -1.24691,15.58968 3.1309,16.91809 28.9097,-10.06393 19.55947,10.81148 -12.34282,-5.13819 -26.41718,-2.39583 -37.80179,-12.5392 -10.98694,8.19103 26.67031,12.23496 5.69284,13.82958 -12.19394,-1.07595 -0.96269,8.78858 -2.4143,7.59974 -17.35134,5.47203 -30.60792,16.81468 -48.01395,21.97962 -18.81337,4.75995 7.20267,-11.77365 12.07076,-16.42334 16.90232,-3.79996 -7.99379,-6.82742 7.81363,-6.98338 12.14474,10.09776 23.76155,-16.13174 12.67663,-20.00435 -4.43804,8.58303 -11.75524,5.10947 -0.16765,10.14491 -6.02087,11.74073 -33.97198,-2.50498 -30.3449,9.59949 15.95147,-5.54893 -1.5314,16.19075 -7.92197,0.58226 -9.21312,0.0415 -18.51288,4.27199 -19.33396,-5.86407 -3.48568,6.8627 -21.54253,4.50011 -4.1828,9.01265 22.73333,8.40699 -18.22422,17.25902 -24.43399,3.52577 -17.23059,-3.80531 -1.43721,-8.46552 6.85133,-2.82938 7.88442,-2.72489 8.91463,-7.90079 5.40337,-11.27313 9.28812,0.55003 8.62699,-9.34132 15.63891,-9.30143 5.00632,-10.02013 4.3815,11.77268 14.35984,-0.8675 10.97137,-10.86657 -8.73947,-0.81866 -14.35424,-4.90644 -10.22333,-4.31065 -16.86339,9.19205 -26.73493,9.01938 8.42178,-17.05949 -24.72926,18.05531 -20.78073,0.67455 -8.01751,3.38318 -23.76699,-8.40714 -8.94421,-4.43326 15.36928,4.16854 -9.35631,-12.52559 -15.49535,-7.47522 11.37161,-0.74008 4.84211,-5.64191 4.91436,-13.68674 -10.19283,3.79638 -16.77848,4.52504 -6.60089,9.20667 -12.29245,4.1566 -28.11652,-10.38058 -34.89559,-19.5691 -11.01151,-3.72804 -24.25842,-3.44686 -32.99097,-8.93322 12.0483,-0.5707 21.96026,-17.0086 6.3496,-8.85081 -11.11955,-11.44015 -22.84145,17.1051 -33.08716,1.94808 18.11367,-12.8845 -19.72405,3.76664 -18.07473,-8.3664 15.46856,5.58253 11.93306,-16.75422 4.67118,-3.19435 -11.55457,2.60895 -13.24781,-6.0779 -6.32118,-10.94124 -17.96315,-4.57614 25.47946,-7.43322 0.49626,-10.79597 -6.15419,-5.15106 19.81622,-13.32575 6.30955,-3.36155 14.07584,4.22738 16.53007,3.38633 12.16159,-4.94866 10.01642,-7.88479 -4.87021,-18.74848 7.43413,-17.80021 8.72189,-7.10382 14.82845,1.93587 6.40706,4.7159 14.72752,3.04762 25.03225,-23.2461 3.8341,-13.26917 -12.53898,3.71352 12.54942,-13.97747 18.4236,-5.32304 8.49253,-9.47053 0.5318,-9.6506 -3.53747,-5.02077 -5.03687,-16.38772 16.39157,-1.87223 16.30947,-14.54554 5.86885,-10.23914 23.79202,16.75931 21.23017,-1.38622 -16.18367,-1.88625 -17.47047,-11.09863 -0.42335,-13.17149 6.95196,-2.07861 37.73825,-0.13442 15.13347,-4.77831 -16.67593,-19.85997 -30.4203,10.4363 -43.99805,18.83556 -17.13532,11.16795 -32.09981,28.43064 -52.1232,38.01441 -13.51501,5.26104 -7.30423,23.91879 -19.64031,34.42556 7.96349,11.82227 11.01168,23.14892 7.87316,35.65498 12.16742,10.59422 22.1601,26.73026 20.24133,44.20233 -19.18322,-4.93611 -24.13695,20.72407 -40.06304,26.88681 7.99543,11.23947 -4.59945,6.32173 -7.68974,0.94598 -17.12784,-3.17723 -6.29237,16.1216 -14.32703,21.16172 10.80862,10.11629 17.87646,-2.31445 13.29419,-9.30635 6.67294,4.97321 28.85379,7.3983 19.36172,18.58671 9.49475,11.74606 15.72656,-15.66712 23.25509,1.02465 3.77239,12.43134 9.90103,-6.05877 15.16807,10.31896 4.53596,-19.22542 8.11247,23.45628 11.1599,5.35884 -7.34857,-15.79794 -11.89698,-33.57359 -15.60652,-49.11975 -13.22597,-4.78475 0.57326,-15.54162 4.87673,-3.79911 3.79986,-10.27056 11.94175,-23.0282 24.5742,-18.98844 16.20074,-1.26441 47.67072,9.5791 42.5027,27.44706 -12.38726,7.4371 1.93515,19.93841 3.69699,3.17938 5.49859,-8.85134 17.48607,8.44188 10.37206,-5.51798 20.62127,-9.01612 23.7677,27.00792 25.80911,41.54158 2.85137,11.72412 -10.67988,36.08971 -17.87931,33.61523 12.52741,-18.87933 12.17655,-49.4231 -3.59104,-66.02571 6.38165,16.13325 10.48674,36.56366 3.78794,53.77902 -0.13196,15.97699 -14.09871,9.10432 -19.49625,15.09813 26.50752,7.61936 -19.55794,0.38399 -14.4274,4.08356 21.7775,11.94464 48.1041,-4.11215 55.53602,-26.52897 10.05433,-3.75288 18.85168,-1.75881 26.05567,4.87594 11.77897,3.34971 19.76606,11.29437 1.96307,7.2926 -15.33349,3.61882 -36.13353,12.51956 -44.0368,24.60432 15.29313,5.03432 36.0418,13.22204 48.25763,4.03568 8.36768,3.92284 18.46527,12.10523 29.21184,1.13371 24.64204,-2.0681 -19.714,-24.08427 -14.56242,-28.67508 15.18167,10.23654 28.85836,4.55096 40.84304,16.12444 24.73117,11.29871 50.84631,20.86869 72.41774,37.54776 11.05258,10.37405 27.3376,17.9092 38.46238,27.94223 l 3.45089,-0.52354 -6e-5,3.1e-4 z M 415.60492,939.59632 c 0.20384,-9.35761 6.75112,4.80561 0,0 z m -30.56844,-2.47073 c -10.72921,-10.76285 23.60621,2.68585 11.18913,-11.4727 23.21939,-4.04674 -5.11001,18.59486 -11.18913,11.4727 z m 104.3967,-0.22401 c 3.94461,-1.41659 3.91586,2.60713 0,0 z m -82.56124,-2.6914 c 3.85589,-10.58631 12.87362,6.73929 0,0 z m 17.60832,-1.51074 c -19.35125,-15.02641 18.03989,5.74477 0,0 z m -68.02981,0.19127 c 5.08591,-5.33178 10.25192,5.24296 0,0 z m 14.83854,-0.43617 c -21.26564,-4.58667 11.65686,-16.10499 0,0 z m 18.15406,-2.14206 c 8.16468,-4.9614 3.9227,4.22569 0,0 z m -7.18998,-4.57501 c -12.61011,-6.40911 2.80497,-9.91538 9.43796,-2.54 -3.2817,-0.0548 -9.59702,10.38274 -9.43796,2.54 z m 78.61632,-2.26403 c 2.62533,-3.73536 5.31392,5.16106 0,0 z m -52.59674,-0.11207 c -17.2866,-6.16933 25.48818,-2.318 3.60417,0.1376 l -3.60417,-0.1376 0,0 z m 45.63231,-2.55695 c -2.8809,-7.78389 8.93131,4.31609 0,0 z m -59.74299,0.60393 c 1.98558,-2.85242 2.54979,1.45226 0,0 z m -5.37708,-4.11036 c -5.19268,-10.76891 14.40417,-2.48912 0,0 z m 19.27079,-1.50618 c 2.89702,-4.17581 2.64054,4.22822 0,0 z m -9.92408,-0.39783 c 3.64029,-5.67977 3.24953,5.46237 0,0 z m 36.71911,-0.88844 c 4.42332,-3.39529 5.93489,4.57512 0,0 z m -12.00092,-5.86129 c -18.12386,-7.94006 -35.02244,-17.96199 -53.00332,-26.24501 -8.40414,-22.15222 18.40238,-4.44772 29.42773,-1.74805 13.59048,4.40852 32.02519,11.54035 27.49317,26.26542 4.5484,3.05496 -1.27486,5.89485 -3.91758,1.72764 z m -0.90039,-5.98071 c -2.62904,-3.04463 -1.03089,2.74604 0,0 z m 11.55553,4.21002 c -15.15493,-11.89894 11.00184,-31.72117 10.67218,-10.23217 5.2112,6.9538 -6.78605,13.98959 -10.67218,10.23217 z m -58.05655,-15.29101 c -26.4447,-13.20286 20.1041,5.5983 0,0 z m 102.31559,-1.70692 c 11.63973,-7.92466 9.97609,-0.76979 -0.99241,1.61763 l 0.99241,-1.61763 z m -61.52092,-5.14333 c -14.73673,-12.85424 -38.01421,-10.23939 -50.46141,-25.46561 21.96294,9.53643 -28.77338,-23.47438 -0.31431,-15.25155 8.53584,5.74174 35.27569,13.85422 12.80785,1.55618 -16.40334,-7.79309 -34.38603,-7.65231 -39.86652,-23.35326 -5.19941,-11.96695 -31.53626,-17.19383 -48.19403,-17.03915 -19.18707,-3.7711 -47.43933,-10.38798 -50.18185,-33.74194 14.59305,-2.35212 30.12706,13.23639 46.0348,15.5779 7.94637,4.22409 31.20507,11.55969 11.20056,1.40852 -19.53525,-5.89293 -36.69407,-16.63876 -55.25898,-23.90651 3.05025,-6.62172 29.27462,-4.56475 24.0104,6.70612 13.45717,10.14493 25.79683,-9.30959 36.53335,6.2533 8.21605,6.62251 16.94368,22.50284 33.50757,17.32003 10.29316,6.34693 30.60592,15.76425 32.08384,22.08257 -8.89329,3.80251 22.01397,12.21779 28.21213,15.25397 12.28912,10.15501 21.67873,4.6442 33.09424,-1.48104 5.32267,10.39589 -0.33759,36.40413 -12.92981,26.06276 -5.2732,-10.61997 15.77542,-19.09236 -5.39774,-14.3812 -12.2682,-2.77693 -18.52256,-0.54726 -2.54198,4.59528 14.71333,21.12223 -9.25269,5.23274 -18.85809,6.36944 4.53836,6.4367 33.33608,9.31052 24.17364,17.34486 -8.81392,-6.32268 -30.13162,-10.31673 -9.98856,-1.35638 9.38108,3.26609 26.26983,15.86989 16.41158,-2.59179 11.66808,-21.8228 30.80253,8.41282 12.86727,17.50652 -6.54083,0.10889 -10.82097,0.28987 -16.94395,0.53098 z M 387.4632,860.76265 c -6.1242,-0.82799 -0.17627,1.40035 0,0 z m -4.21773,-1.79178 c -11.18271,-9.09542 -17.32288,-3.94834 0,0 z m 11.99314,-19.48037 c -7.1551,-6.64868 -43.84617,-14.33394 -17.57525,-3.9145 4.41995,0.83949 15.94291,7.44739 17.57525,3.9145 z m -33.21452,-10.97237 c -3.42099,-6.65739 -34.30211,-14.60767 -14.01923,-4.48498 4.09068,0.91194 9.66312,7.44148 14.01923,4.48498 z m -2.08308,-11.80733 c -4.99318,-8.30778 -34.09742,-14.71756 -11.78601,-4.08144 3.66207,0.84022 7.98411,6.91551 11.78601,4.08144 z m -25.77895,-11.16984 c -3.51996,-8.26914 -39.02678,-14.67137 -13.85408,-5.15662 4.24932,1.26903 9.24476,7.6204 13.85408,5.15662 z M 260.93112,766.8756 c 4.74746,-5.72437 -8.26947,1.9371 0,0 z m 228.52324,117.68683 c 12.9135,-10.48281 7.86064,0.18931 0,0 z M 221.66507,871.3728 c 3.75437,-7.9404 4.41346,8.20918 0,0 z m 22.35031,-9.52459 c -6.11232,-10.44172 -18.4174,-12.60918 -20.66758,-0.005 0.13328,-8.37525 -16.99565,-18.50596 -6.21771,-25.21958 8.8732,10.55511 18.50615,-0.0157 19.29196,-5.81034 17.23419,13.31501 -2.69719,6.67903 -4.43434,16.00915 11.74631,3.51363 23.15815,-13.28423 19.26744,8.29278 -7.69615,-0.85122 -5.58853,4.73076 -4.2493,8.51127 l -2.99047,-1.77903 0,4e-5 z m -12.29635,0.89399 c -9.35873,-16.74078 12.5574,5.89072 0,0 z m -41.49701,-2.64609 c 6.3768,-7.17416 8.85692,7.41804 0,0 z m 20.37928,-4.32378 c -2.80619,-6.36401 12.6051,0.0398 2.1512,1.47255 l -2.1512,-1.47255 z m -17.33524,-7.15399 c -4.29126,-11.64206 13.87809,4.89007 0,0 l 0,0 z m 342.17068,-2.0611 c 3.88754,-14.19472 13.52974,4.82276 0,0 z m -8.29204,-1.97636 c 2.57151,-8.10188 1.8756,7.86869 0,0 z m 6.79345,-9.41144 c -8.00294,-12.59245 1.29472,-23.04147 13.82701,-27.63029 0.023,11.63338 6.04798,27.27314 -9.6412,31.00035 -2.80135,3.69586 -5.07916,-0.57865 -4.18581,-3.37006 z M 224.9412,834.99487 c 1.12716,-10.24477 8.25068,5.95602 0,0 z m 302.38389,-2.71405 c 2.50741,-19.9326 4.85744,14.24632 0,0 z m -198.72732,2.72423 c -10.83718,-13.82871 -31.0827,-23.06758 -45.14777,-24.26473 18.60035,-3.05278 47.59595,4.1309 55.16023,20.31575 -3.18606,1.03622 -6.16294,6.44642 -10.01246,3.94898 z m 109.23017,-5.14374 c -10.68822,-3.80916 -3.72527,-13.24225 0.24268,-3.97733 5.82021,1.15181 8.05335,9.59592 -0.24268,3.97733 z M 238.9318,827.62066 c -4.31888,-11.61194 11.4838,3.50729 0,0 z m -11.99067,-1.3398 c 5.80354,-6.0397 5.92909,5.89946 0,0 z m 21.90049,-1.26114 c -0.97537,-13.08472 5.51942,7.00177 -3e-5,0 l 3e-5,0 z m 6.92175,-1.86649 c 0.12912,-4.28068 3.53066,2.54082 0,0 z m -20.19113,-7.00684 c 5.01374,-9.24734 12.18321,12.00483 0,0 z m 293.55728,0.93751 c 3.74414,-4.39059 2.82129,5.28142 0,0 z m -24.31401,-1.53608 c 9.89178,-10.55058 21.16921,3.65363 2.62723,1.91047 -1.14394,0.0806 -2.57397,-0.61215 -2.62723,-1.91047 z m -113.36594,0.86709 c 1.99626,-13.26508 13.74725,6.8377 0,0 z m -135.52924,0.59674 c -13.91335,-3.33471 15.20962,-10.3182 -2.33063,-13.59139 -16.70366,-19.49622 28.94119,4.82539 18.05562,6.92977 -5.75708,2.54238 -7.68768,9.75683 -15.72499,6.66162 z m 121.3707,-1.10079 c 11.66893,-15.55282 16.77599,3.08615 0,0 z m 25.50441,-8.99673 c 0.91735,-7.70222 10.16623,4.50804 0,0 z m 133.34359,-10.80906 c -6.24603,-9.84929 14.3933,-27.21741 15.39801,-13.75132 5.38234,14.40333 -16.82809,38.04302 -15.39801,13.75132 z m 10.41247,-10.45108 c 2.62811,-8.41843 -8.43425,5.37104 0,0 z m -32.64039,15.82941 c 1.35515,-12.71125 12.89861,6.56164 0,0 z m 7.31406,-6.18069 c -1.37172,-9.82016 12.59148,5.38357 0,-1e-5 l 0,1e-5 z m -200.85275,-5.20824 c 4.10585,-10.90886 12.95204,5.18764 0,0 z m 205.48092,-5.72281 c -0.48445,-18.16104 10.14636,16.52855 0,0 z m -10.04017,3.23491 c -5.79706,-9.65692 13.2184,1.66184 0,0 z M 312.7365,784.24012 c -4.18519,-10.01938 14.00894,4.94103 0,0 z m -7.3484,-8.21311 c -10.68392,-9.34115 11.95652,4.13204 0,0 z m -73.40008,-5.93989 c -10.28456,-24.18117 14.97017,12.72329 0,0 z m 38.65572,0.016 c -1.3284,-10.79761 15.84387,5.48179 0,0 z m -1.56658,-12.6062 c 11.7095,-5.20058 -0.029,9.78084 0,0 z m -36.18157,0.38958 c 12.64489,-17.7912 11.48568,10.48661 0,0 z m 43.16976,-4.35065 c 6.70927,-8.23719 6.02702,9.27073 0,0 z m 225.7195,-26.78084 c 0.48533,-6.00826 8.50295,4.28115 0,0 z m -260.4538,-18.07164 c -0.76522,-6.02437 1.48728,-13.30802 8.56231,-5.74541 -3.50461,1.81051 -3.66949,11.25997 -8.56231,5.74541 z m -7.29354,-2.91843 c 1.02414,-5.78191 6.195,4.32637 0,0 z m 220.66136,-14.79203 c 2.4001,-4.3108 1.67657,5.05963 0,0 z m -185.08417,-0.7487 c 8.39593,-9.56309 7.21716,8.90467 0,0 z m 144.39544,-27.05218 c 6.19617,-7.38595 8.68851,7.71599 0,0 z m -29.58333,-16.5098 c 4.51879,-5.29366 4.64158,5.66045 0,0 z m -73.62717,-0.9295 c 3.76919,-10.25717 12.67041,4.6084 0,0 z m 10.64422,-5.7346 c 8.44855,-2.32116 -0.92163,6.85437 0,0 z m 256.06557,336.01628 c 9.5476,-9.71471 -19.65636,5.65367 0,0 z m -9.19808,-1.72589 c 2.89827,-9.11164 -13.32763,5.63514 0,0 z m -13.62234,-3.39774 c -8.90692,-5.56383 -2.28487,4.40228 0,0 z m -172.64579,-5.24984 c 7.34292,-21.51512 -29.04328,0.26074 -6.38699,0.64403 l 3.70969,-0.0328 2.6773,-0.61128 0,0 z m -8.14446,-1.39943 c -4.89886,-10.05815 15.28855,1.84568 0,0 z m 279.28182,-42.33126 c 9.50872,-8.8574 -9.09452,-2.31244 0,0 l 0,0 z m -4.96204,-2.86952 c -4.27116,-4.95188 -2.66571,4.07513 0,0 z m -350.36053,-1.85652 c -10.4302,-5.16102 -20.92903,-22.46418 -30.51761,-22.04148 6.69556,8.45424 19.20285,21.98262 30.51761,22.04148 z m -1.01027,-12.33262 c 1.55789,-17.40563 32.484,-14.59337 23.14783,-38.308 -0.17338,-14.09159 -20.37191,-12.81184 -14.49679,-26.8665 4.78901,-8.70633 -9.32194,-18.22669 -13.55704,-8.85019 7.46673,20.41595 -23.15395,22.66292 -16.36134,42.60703 9.21883,13.16958 -2.81543,-30.59548 19.35536,-17.05038 26.93114,8.63524 9.53554,46.20338 -13.6171,26.76237 8.28136,5.76055 -0.5171,28.36732 15.52908,21.70567 z m -7.27514,-4.23482 c -0.007,-19.62888 11.96857,2.43877 0,0 z M 312.30159,875.912 c 4.12325,-9.08468 -20.26696,-28.27642 -3.32349,-18.13358 4.10814,0.071 10.79553,27.3811 3.32349,18.13358 z m -16.38807,-28.8972 c 2.71037,-4.76144 2.53867,3.25253 0,0 z m 0.73997,-11.70804 c 7.31525,-19.79454 -0.0801,21.49876 0,0 l 0,0 z m 260.51156,63.62086 c 12.75098,-14.63862 -28.53641,-6.47039 -5.83189,1.97957 l 2.61176,-0.48532 3.22013,-1.49424 0,-10e-6 z m -8.18737,-2.23148 c -0.2574,-8.80217 11.39371,3.59548 0,0 z m -18.46246,1.91188 c 6.04365,-5.6446 12.56453,-24.88995 -3.30834,-16.20079 -20.21713,-2.73501 -12.56042,24.55652 3.30834,16.20079 z m -11.30979,-3.35111 c 5.66708,-14.01808 15.05657,9.22032 0,0 z m 0.99241,-7.35111 c 3.45228,-5.81571 5.17174,5.64938 0,0 z m 10.91649,-3.05932 c 5.46671,-6.80905 4.95012,5.32522 0,0 z m 73.90368,0.35259 c -6.74532,-6.7253 -44.19441,-16.13881 -18.82501,-5.43944 6.10534,1.47566 12.33279,8.27042 18.82501,5.43944 z m -142.25462,-0.64188 c 6.42467,-6.64482 34.8818,-16.95347 29.5363,-21.15294 -8.72689,7.89687 -31.66473,14.98998 -33.63379,22.49187 l 4.09749,-1.33893 0,0 z m -165.80043,-8.23562 c -1.29729,-5.05576 -8.72687,-3.17721 -0.34236,-8.02534 -14.61296,-10.38733 -14.62698,15.55919 0.34236,8.02534 z m 210.11275,-15.47491 c 7.59825,-13.73411 -17.34299,5.02379 0,0 z m -21.61217,-43.31798 c -5.22131,-2.9446 -5.22131,2.94461 0,0 z m -51.07458,-3.13455 c 19.5987,-6.01012 -4.20206,-12.59674 -4.81929,-0.0948 l 1.3228,0.59342 3.49649,-0.49862 0,0 z m 24.7906,-7.23532 c 1.49692,-15.74513 -11.49662,11.5628 0,0 z m 30.25362,0.0264 c -3.51196,-3.11479 -2.39901,2.75968 0,0 z m -17.90184,-9.49019 c 1.87901,-12.64834 -10.09387,6.74992 0,0 z m -90.19826,-4.71162 c 3.60559,-6.76892 -3.93618,-24.63331 -8.0117,-17.12701 8.44215,-1.79913 -3.09886,29.18225 8.0117,17.12701 z m -13.63534,0.14528 c 5.00145,-12.94837 -18.36947,-9.96674 -4.28949,-0.65849 l 3.0379,1.10813 1.25159,-0.44964 0,0 z m -34.37981,-10.31902 c -5.76754,-14.96084 -10.84546,2.74032 0,0 z m 209.70531,-13.8158 c -3.51196,-3.11481 -2.39903,2.75966 0,0 z m -157.1299,-1.25518 c -5.25771,-11.51484 -13.27085,3.5535 0,0 z m -28.63722,-0.92374 c -5.27241,-6.44138 -4.28721,6.07901 0,0 z m 181.79749,-0.18005 c -6.84086,-6.4913 -5.93211,1.98949 0,0 z m 12.96186,-1.52858 c -7.60422,-7.88737 -18.28323,-3.86385 -3.29952,0.75978 -0.23776,0.62261 5.68663,1.60252 3.29952,-0.75978 z m -239.84302,-2.94174 c 6.75403,-10.17169 -15.9991,5.90352 0,0 z m 72.62006,-3.06775 c 2.00711,-10.47043 -12.41296,5.15048 0,0 z m 8.62514,-8.99655 c 6.50131,-4.74203 -9.491,-0.23576 0,0 z M 272.33166,746.668 c 13.00465,-15.34091 -16.61419,-0.0896 0,0 z m -23.06133,-15.85262 c 9.54747,0.94768 28.2575,-12.80214 7.98589,-8.03925 -3.13488,1.03726 -24.09966,13.24087 -7.98589,8.03925 z m 207.78326,-7.59457 c 1.95442,-10.52737 -11.89172,3.89474 0,0 z m -11.64125,-7.94193 c -2.44703,-10.30909 -11.90992,5.24204 0,0 z m -14.22781,-3.99499 c 18.00113,-2.28235 -8.08023,-13.76785 -4.68167,-2.29266 -13.03324,-6.27107 -2.19912,9.01865 4.68167,2.29266 z m -12.53252,-23.19122 c 15.49939,-9.04027 -20.09199,-22.0561 -9.54793,-3.84666 5.07715,-7.32329 13.84029,-1.08223 3.52415,3.47686 l 2.38746,0.5437 3.63632,-0.1739 0,0 z m 12.55987,-0.78585 c 2.72864,-8.09702 17.21611,-4.54621 0.0451,-8.07695 -6.18563,-2.25466 -5.08078,10.50363 -0.0451,8.07695 z m -131.08062,-4.28713 c 6.79362,-11.82904 -18.81551,3.59765 0,0 z m 16.27689,-4.35945 c -2.95462,-10.37385 -12.03353,6.68277 0,0 z m -16.06275,-2.71372 c -1.28592,-6.67502 -7.5462,2.55075 0,0 z m 24.67877,-2.16579 c 2.88291,-9.51308 -16.98765,1.34991 -2.01268,0.58608 l 2.01268,-0.58608 z m 35.39591,-4.64131 c -2.21749,-3.73417 -2.21544,3.57246 0,0 z m 28.77984,-1.81778 c -5.17626,-9.81882 -13.87131,4.51094 0,0 z M 368.174,666.11498 c 6.76511,-5.97233 -3.67471,-2.75401 -3.14993,1.0665 l 1.2812,0.11765 1.86873,-1.18415 z m -7.42312,-3.47339 c 0.21965,-5.59745 -10.78203,2.66818 0,0 z m -9.87369,-5.4836 c -5.63749,-12.908 -21.47279,-4.81394 0,0 z m -12.2901,-1.98945 c -1.71041,-1.7841 -2.45415,2.74127 0,0 z m 37.078,-9.10305 c -2.83413,-3.941 0.10659,3.93041 0,0 z m -14.83638,-17.78994 c -10.31172,4.06808 -22.4218,-20.1958 -19.17701,-4.34583 -10.14122,0.82126 18.04457,8.94131 19.17701,4.34583 z m -32.0053,-0.5625 c 2.7775,-8.67928 -8.29614,4.14118 0,0 z m 38.64788,-2.02628 c 14.38392,0.81368 1.57146,-10.40349 1.23733,-5.84037 0.55739,5.23005 -13.59136,11.20139 -1.23733,5.84037 z m -43.41144,-4.28652 c -2.83413,-3.94101 0.1066,3.93041 0,0 z m 32.79486,-4.33621 c -8.80227,-4.04902 -25.35291,-6.50953 -7.11235,-0.55601 l 4.79885,0.59316 2.3135,-0.0371 z m 9.8776,-2.97891 c 3.09364,-5.77441 -6.22715,0.11464 0,0 z m -42.70055,0.0216 c 3.13502,-5.16641 -4.28587,1.71797 0,0 z m 4.13503,-2.6522 c 4.70226,-2.58101 -7.3899,2.13281 0,0 z m 11.39751,-0.99457 c -3.037,-7.35516 -8.28158,5.20273 0,0 l 0,0 z m 13.21063,-0.67919 c -6.01286,-1.54458 -2.96047,3.07458 0,0 z m -9.42428,-8.0332 c 3.97771,-6.48925 -6.9135,4.09823 0,0 z"
               id="path4584"
               inkscape:connector-curvature="0" />
          </g>
          <g
             id="g3020"
             style="font-size:40px;font-style:normal;font-variant:normal;font-weight:normal;font-stretch:normal;line-height:125%;letter-spacing:0px;word-spacing:0px;fill:#000000;fill-opacity:1;stroke:none;filter:url(#filter3091);font-family:Edmunds;-inkscape-font-specification:Edmunds"
             transform="matrix(1.0037337,0,0,0.80985266,62.855291,74.774842)" />
        </g>
        <g
           transform="matrix(1.1132847,0,0,0.89824283,-152.25962,52.574912)"
           style="font-size:40px;font-style:normal;font-variant:normal;font-weight:normal;font-stretch:normal;line-height:125%;letter-spacing:0px;word-spacing:0px;fill:#000000;fill-opacity:1;stroke:none;font-family:Edmunds;-inkscape-font-specification:Edmunds"
           id="text4597">
          <path
             d="m 411.312,935.33678 c 1.184,0.736 3.552,1.376 5.856,1.376 5.53599,0 8.16,-3.008 8.16,-6.496 0,-3.104 -1.792,-4.992 -5.536,-6.4 -2.88,-1.12 -4.128,-1.888 -4.128,-3.552 0,-1.28 1.056,-2.592 3.552,-2.592 2.016,0 3.52,0.608 4.32,1.024 l 0.928,-3.168 c -1.12,-0.576 -2.816,-1.088 -5.152,-1.088 -4.704,0 -7.648,2.656 -7.648,6.208 0,3.104 2.272,4.992 5.856,6.272 2.72,0.992 3.808,1.952 3.808,3.584 0,1.76 -1.408,2.944 -3.904,2.944 -2.016,0 -3.968,-0.64 -5.216,-1.376 l -0.896,3.264"
             style="font-size:32px;font-weight:600;font-family:Myriad Pro;-inkscape-font-specification:Myriad Pro Semi-Bold"
             id="path5110"
             inkscape:connector-curvature="0" />
          <path
             d="m 443.713,932.64878 c -1.056,0.448 -2.72,0.768 -4.288,0.768 -4.768,0 -7.52,-3.00801 -7.52,-7.776 0,-5.184 3.168,-7.936 7.552,-7.936 1.76,0 3.2,0.384 4.224,0.832 l 0.832,-3.136 c -0.8,-0.416 -2.624,-0.96 -5.216,-0.96 -6.59199,0 -11.552,4.28801 -11.552,11.392 0,6.59199 4.16001,10.88 11.008,10.88 2.624,0 4.672,-0.512 5.6,-0.96 l -0.64,-3.104"
             style="font-size:32px;font-weight:600;font-family:Myriad Pro;-inkscape-font-specification:Myriad Pro Semi-Bold"
             id="path5112"
             inkscape:connector-curvature="0" />
          <path
             d="m 447.7095,914.79278 0,21.568 3.936,0 0,-9.504 9.12,0 0,9.504 3.936,0 0,-21.568 -3.936,0 0,8.64 -9.12,0 0,-8.64 -3.936,0"
             style="font-size:32px;font-weight:600;font-family:Myriad Pro;-inkscape-font-specification:Myriad Pro Semi-Bold"
             id="path5114"
             inkscape:connector-curvature="0" />
          <path
             d="m 469.2095,936.36078 12.8,0 0,-3.296 -8.864,0 0,-18.272 -3.936,0 0,21.568"
             style="font-size:32px;font-weight:600;font-family:Myriad Pro;-inkscape-font-specification:Myriad Pro Semi-Bold"
             id="path5116"
             inkscape:connector-curvature="0" />
          <path
             d="m 483.865,914.79278 0,12.352 c 0,6.78399 3.232,9.568 8.224,9.568 5.18399,0 8.608,-2.94401 8.608,-9.6 l 0,-12.32 -3.936,0 0,12.576 c 0,4.22399 -1.696,6.176 -4.544,6.176 -2.656,0 -4.416,-1.95201 -4.416,-6.176 l 0,-12.576 -3.936,0"
             style="font-size:32px;font-weight:600;font-family:Myriad Pro;-inkscape-font-specification:Myriad Pro Semi-Bold"
             id="path5118"
             inkscape:connector-curvature="0" />
          <path
             d="m 523.8335,936.36078 3.84,0 -1.248,-21.568 -5.12,0 -2.976,8.64 c -0.832,2.528 -1.568,5.184 -2.144,7.52 l -0.096,0 c -0.544,-2.4 -1.216,-4.96 -1.984,-7.488 l -2.816,-8.672 -5.184,0 -1.44,21.568 3.68,0 0.48,-8.672 c 0.16,-2.944 0.288,-6.368 0.384,-9.184 l 0.064,0 c 0.576,2.688 1.344,5.632 2.176,8.384 l 2.88,9.216 3.008,0 3.168,-9.344 c 0.96,-2.72 1.856,-5.632 2.56,-8.256 l 0.096,0 c -0.032,2.912 0.128,6.272 0.256,9.056 l 0.416,8.8"
             style="font-size:32px;font-weight:600;font-family:Myriad Pro;-inkscape-font-specification:Myriad Pro Semi-Bold"
             id="path5120"
             inkscape:connector-curvature="0" />
          <path
             d="m 531.647,936.36078 3.904,0 0,-8.16 c 0.544,0.128 1.184,0.16 1.92,0.16 2.784,0 5.216,-0.768 6.816,-2.336 1.184,-1.152 1.824,-2.816 1.824,-4.864 0,-2.016 -0.832,-3.712 -2.112,-4.768 -1.376,-1.152 -3.456,-1.76 -6.336,-1.76 -2.624,0 -4.576,0.192 -6.016,0.448 l 0,21.28 m 3.904,-18.496 c 0.416,-0.096 1.184,-0.192 2.272,-0.192 2.72,0 4.384,1.248 4.384,3.648 0,2.496 -1.792,3.968 -4.736,3.968 -0.8,0 -1.408,-0.032 -1.92,-0.192 l 0,-7.232"
             style="font-size:32px;font-weight:600;font-family:Myriad Pro;-inkscape-font-specification:Myriad Pro Semi-Bold"
             id="path5122"
             inkscape:connector-curvature="0" />
          <path
             d="m 549.522,936.36078 3.936,0 0,-9.184 7.936,0 0,-3.2 -7.936,0 0,-5.952 8.544,0 0,-3.232 -12.48,0 0,21.568"
             style="font-size:32px;font-weight:600;font-family:Myriad Pro;-inkscape-font-specification:Myriad Pro Semi-Bold"
             id="path5124"
             inkscape:connector-curvature="0" />
          <path
             d="m 565.8345,936.29678 c 1.024,0.128 2.656,0.288 4.832,0.288 3.968,0 6.496,-0.672 8.032,-1.984 1.216,-1.056 2.048,-2.56 2.048,-4.48 0,-2.944 -2.08,-4.736 -4.352,-5.312 l 0,-0.096 c 2.336,-0.864 3.584,-2.656 3.584,-4.64 0,-1.856 -0.896,-3.264 -2.24,-4.064 -1.44,-0.992 -3.264,-1.376 -6.144,-1.376 -2.24,0 -4.512,0.224 -5.76,0.48 l 0,21.184 m 3.904,-18.592 c 0.416,-0.096 1.088,-0.16 2.24,-0.16 2.496,0 4.032,0.928 4.032,2.976 0,1.824 -1.504,3.104 -4.256,3.104 l -2.016,0 0,-5.92 m 0,8.768 1.952,0 c 2.72,0 4.928,1.024 4.928,3.552 0,2.656 -2.272,3.584 -4.8,3.584 -0.896,0 -1.568,0 -2.08,-0.096 l 0,-7.04"
             style="font-size:32px;font-weight:600;font-family:Myriad Pro;-inkscape-font-specification:Myriad Pro Semi-Bold"
             id="path5126"
             inkscape:connector-curvature="0" />
          <path
             d="m 596.336,923.59278 -8.128,0 0,-5.568 8.608,0 0,-3.232 -12.544,0 0,21.568 13.024,0 0,-3.232 -9.088,0 0,-6.336 8.128,0 0,-3.2"
             style="font-size:32px;font-weight:600;font-family:Myriad Pro;-inkscape-font-specification:Myriad Pro Semi-Bold"
             id="path5128"
             inkscape:connector-curvature="0" />
          <path
             d="m 612.836,923.59278 -8.128,0 0,-5.568 8.608,0 0,-3.232 -12.544,0 0,21.568 13.024,0 0,-3.232 -9.088,0 0,-6.336 8.128,0 0,-3.2"
             style="font-size:32px;font-weight:600;font-family:Myriad Pro;-inkscape-font-specification:Myriad Pro Semi-Bold"
             id="path5130"
             inkscape:connector-curvature="0" />
          <path
             d="m 617.272,936.36078 3.904,0 0,-8.864 1.984,0 c 2.24,0.064 3.232,0.96 3.872,3.776 0.576,2.688 1.12,4.448 1.44,5.088 l 4.032,0 c -0.416,-0.832 -0.992,-3.328 -1.696,-6.016 -0.512,-2.08 -1.44,-3.584 -3.008,-4.16 l 0,-0.096 c 2.048,-0.704 3.936,-2.592 3.936,-5.376 0,-1.856 -0.672,-3.36 -1.856,-4.352 -1.472,-1.216 -3.552,-1.728 -6.656,-1.728 -2.272,0 -4.448,0.192 -5.952,0.48 l 0,21.248 m 3.904,-18.56 c 0.384,-0.096 1.184,-0.192 2.432,-0.192 2.56,0 4.192,1.12 4.192,3.456 0,2.144 -1.632,3.552 -4.288,3.552 l -2.336,0 0,-6.816"
             style="font-size:32px;font-weight:600;font-family:Myriad Pro;-inkscape-font-specification:Myriad Pro Semi-Bold"
             id="path5132"
             inkscape:connector-curvature="0" />
          <path
             d="m 647.5235,923.59278 -8.128,0 0,-5.568 8.608,0 0,-3.232 -12.544,0 0,21.568 13.024,0 0,-3.232 -9.088,0 0,-6.336 8.128,0 0,-3.2"
             style="font-size:32px;font-weight:600;font-family:Myriad Pro;-inkscape-font-specification:Myriad Pro Semi-Bold"
             id="path5134"
             inkscape:connector-curvature="0" />
          <path
             d="m 655.5755,936.36078 0,-7.712 c 0,-3.552 -0.064,-6.4 -0.224,-9.184 l 0.128,-0.032 c 1.056,2.432 2.464,5.056 3.84,7.424 l 5.632,9.504 4.096,0 0,-21.568 -3.648,0 0,7.52 c 0,3.296 0.064,6.08 0.352,8.96 l -0.064,0 c -0.992,-2.336 -2.272,-4.832 -3.68,-7.232 l -5.568,-9.248 -4.512,0 0,21.568 3.648,0"
             style="font-size:32px;font-weight:600;font-family:Myriad Pro;-inkscape-font-specification:Myriad Pro Semi-Bold"
             id="path5136"
             inkscape:connector-curvature="0" />
        </g>
      </g>
    </g>
  </g>
</svg>
